<?xml version="1.0" standalone="no"?>
<!DOCTYPE svg PUBLIC "-//W3C//DTD SVG 1.1//EN" "http://www.w3.org/Graphics/SVG/1.1/DTD/svg11.dtd" >
<svg xmlns="http://www.w3.org/2000/svg">
<metadata>Generated by IcoMoon</metadata>
<defs>
<font id="rl-font" horiz-adv-x="1024">
<font-face units-per-em="1024" ascent="960" descent="-64" />
<missing-glyph horiz-adv-x="1024" />
<glyph unicode="&#x20;" horiz-adv-x="512" d="" />
<glyph unicode="&#xe900;" glyph-name="checkbox-checked" d="M67.981 925.867c-18.604 0-33.847-15.275-33.847-33.847v-888.039c0-18.604 15.275-33.847 33.847-33.847h888.039c18.604 0 33.847 15.275 33.847 33.847v888.039c0 18.604-15.275 33.847-33.847 33.847h-888.039zM956.019 960c37.334 0 67.981-30.436 67.981-67.981v-888.039c0-37.334-30.436-67.981-67.981-67.981h-888.039c-37.334 0-67.981 30.436-67.981 67.981v888.039c0 37.334 30.436 67.981 67.981 67.981h888.039zM384 153.6l-256 256 102.4 102.4 153.6-153.6 409.6 409.6 102.4-102.4z" />
<glyph unicode="&#xe901;" glyph-name="checkbox-some" d="M67.981 925.867c-18.604 0-33.847-15.275-33.847-33.847v-888.039c0-18.604 15.275-33.847 33.847-33.847h888.039c18.604 0 33.847 15.275 33.847 33.847v888.039c0 18.604-15.275 33.847-33.847 33.847h-888.039zM956.019 960c37.334 0 67.981-30.436 67.981-67.981v-888.039c0-37.334-30.436-67.981-67.981-67.981h-888.039c-37.334 0-67.981 30.436-67.981 67.981v888.039c0 37.334 30.436 67.981 67.981 67.981h888.039zM192 512h640v-128h-640v128z" />
<glyph unicode="&#xe902;" glyph-name="checkbox-none" d="M67.981 925.867c-18.604 0-33.847-15.275-33.847-33.847v-888.039c0-18.604 15.275-33.847 33.847-33.847h888.039c18.604 0 33.847 15.275 33.847 33.847v888.039c0 18.604-15.275 33.847-33.847 33.847h-888.039zM956.019 960c37.334 0 67.981-30.436 67.981-67.981v-888.039c0-37.334-30.436-67.981-67.981-67.981h-888.039c-37.334 0-67.981 30.436-67.981 67.981v888.039c0 37.334 30.436 67.981 67.981 67.981h888.039z" />
<glyph unicode="&#xe903;" glyph-name="circle-empty" d="M512 960c-69.334 0-135.6-13.6-198.8-40.8s-117.6-63.6-163.2-109.2c-45.6-45.6-82-100-109.2-163.2s-40.8-129.466-40.8-198.8c0-69.334 13.6-135.6 40.8-198.8s63.6-117.6 109.2-163.2c45.6-45.6 100-82 163.2-109.2s129.466-40.8 198.8-40.8c69.334 0 135.6 13.6 198.8 40.8s117.6 63.6 163.2 109.2c45.6 45.6 82 100 109.2 163.2s40.8 129.466 40.8 198.8c0 69.334-13.6 135.6-40.8 198.8s-63.6 117.6-109.2 163.2c-45.6 45.6-100 82-163.2 109.2s-129.466 40.8-198.8 40.8v0zM896 448c0-69.667-17.166-133.916-51.5-192.75s-80.916-105.416-139.75-139.75c-58.834-34.334-123.083-51.5-192.75-51.5s-133.916 17.166-192.75 51.5c-58.834 34.334-105.416 80.916-139.75 139.75s-51.5 123.083-51.5 192.75c0 69.667 17.166 133.916 51.5 192.75s80.916 105.416 139.75 139.75c58.834 34.334 123.083 51.5 192.75 51.5s133.916-17.166 192.75-51.5c58.834-34.334 105.416-80.916 139.75-139.75s51.5-123.083 51.5-192.75v0z" />
<glyph unicode="&#xe904;" glyph-name="star-empty" d="M696.122 346.612l187.347 181.837-258.367 37.959-115.714 233.878-115.714-233.878-258.367-37.959 187.347-181.837-44.694-257.755 231.429 121.837 230.816-121.837-44.082 257.755zM1018.776 565.184c0-8.98-5.306-18.775-15.918-29.388l-222.245-216.735 52.653-306.122c0.408-2.857 0.612-6.939 0.612-12.245 0-20.408-8.367-30.612-25.102-30.612-7.755 0-15.918 2.449-24.49 7.347l-274.898 144.49-274.898-144.49c-8.98-4.898-17.143-7.347-24.49-7.347-8.571 0-15 2.959-19.286 8.878s-6.429 13.163-6.429 21.735c0 2.449 0.408 6.531 1.224 12.245l52.653 306.122-222.857 216.735c-10.204 11.020-15.306 20.816-15.306 29.388 0 15.102 11.428 24.49 34.286 28.163l307.347 44.694 137.755 278.571c7.755 16.735 17.755 25.102 30 25.102s22.245-8.367 30-25.102l137.755-278.571 307.347-44.694c22.857-3.673 34.286-13.061 34.286-28.163v0z" />
<glyph unicode="&#xe905;" glyph-name="add" d="M512-64c-282.77 0-512 229.23-512 512s229.23 512 512 512c282.77 0 512-229.23 512-512s-229.23-512-512-512zM512-17.455c257.063 0 465.455 208.391 465.455 465.455s-208.391 465.455-465.455 465.455c-257.063 0-465.455-208.391-465.455-465.455s208.391-465.455 465.455-465.455zM488.727 471.273v232.727h46.545v-232.727h232.727v-46.545h-232.727v-232.727h-46.545v232.727h-232.727v46.545h232.727z" />
<glyph unicode="&#xe906;" glyph-name="add-image" horiz-adv-x="1229" d="M529.171 441.994l198.868-150.521 99.59 50.069 198.868-120.291v-80.299h-596.917v200.59zM1026.81 467.185c0-41.566-33.405-75.261-74.615-75.261s-74.615 33.694-74.615 75.261c0 41.566 33.405 75.261 74.615 75.261s74.615-33.694 74.615-75.261v0zM214.166 959.37h133.307v-537.53h-133.307v537.53zM14.361 757.836h532.917v-134.461h-532.917v134.461zM1126.4 743.036h-464.859v-100.452h464.859v-602.084h-796.098v264.829h-99.59v-264.829c0-55.107 44.644-100.452 99.59-100.452h796.098c54.634 0 99.59 45.030 99.59 100.452v602.399c-0.312 55.107-44.956 100.137-99.59 100.137v0z" />
<glyph unicode="&#xe907;" glyph-name="play-none" d="M512-7.11c-251.358 0-455.1 203.776-455.1 455.1 0 77.892 19.627 151.142 54.101 215.245l5.7-4.062 272.657-194.799v-183.671c0-37.513 42.121-59.563 72.943-38.229l120.73 83.593 262.212-187.29c-83.115-89.532-201.455-145.886-333.244-145.886zM512 903.124c251.358 0 455.1-203.776 455.1-455.134 0-94.959-29.15-183.057-78.882-256.034l-245.555 175.411 61.303 42.428c26.692 18.466 26.692 57.924 0 76.425l-241.664 167.287c-30.822 21.333-72.943-0.717-72.943-38.195v-67.038l-241.186 172.305c83.012 110.626 214.835 182.545 363.827 182.545zM512 959.99c-282.761 0-512-229.205-512-512 0-282.761 229.239-512 512-512s512 229.239 512 512c0 282.795-229.239 512-512 512z" />
<glyph unicode="&#xe908;" glyph-name="play" d="M512 960c-282.772 0-512-229.228-512-512 0-282.761 229.228-512 512-512 282.761 0 512 229.239 512 512 0 282.772-229.239 512-512 512v0zM512-7.111c-251.358 0-455.111 203.765-455.111 455.111 0 251.358 203.753 455.111 455.111 455.111 251.346 0 455.111-203.753 455.111-455.111 0-251.346-203.765-455.111-455.111-455.111v0zM703.954 486.207l-241.664 167.31c-30.822 21.333-72.92-0.717-72.92-38.207v-334.62c0-37.49 42.098-59.54 72.92-38.207l241.664 167.31c26.692 18.478 26.692 57.936 0 76.413v0z" />
<glyph unicode="&#xe909;" glyph-name="duplicate" horiz-adv-x="991" d="M937.881 738.213h-230.046c-21.567 0-49.217-9.401-70.784-22.12v181.383c0 29.309-23.779 53.088-53.088 53.088h-230.046c-29.309 0-70.23-17.143-90.691-37.604l-225.622-225.622c-20.461-20.461-37.604-61.383-37.604-90.691v-371.613c0-29.309 23.779-53.088 53.088-53.088h300.83v-159.263c0-29.309 23.779-53.088 53.088-53.088h530.876c29.309 0 53.088 23.779 53.088 53.088v672.443c0 29.309-23.779 53.088-53.088 53.088zM637.051 620.425v-165.346h-165.346l165.346 165.346zM283.134 832.775v-165.346h-165.346l165.346 165.346zM391.521 474.987c-20.461-20.461-37.604-61.383-37.604-90.691v-141.567h-283.134v353.917h230.046c29.309 0 53.088 23.779 53.088 53.088v230.046h212.351v-230.046l-174.747-174.747zM920.185 30.378h-495.484v353.917h230.046c29.309 0 53.088 23.779 53.088 53.088v230.046h212.35v-637.051z" />
<glyph unicode="&#xe90a;" glyph-name="forward" horiz-adv-x="649" d="M18.38 54.154l118.154-118.154 512 512-512 512-118.154-118.154 393.846-393.846z" />
<glyph unicode="&#xe90b;" glyph-name="shield" horiz-adv-x="860" d="M701.194 417.942c0-93.45-82.493-177.877-151.453-232.013-51.558-40.602-104.406-70.893-137.274-88.294v732.774h288.727v-412.467zM824.934 912.903c0 22.557-18.69 41.247-41.247 41.247h-742.441c-22.557 0-41.247-18.69-41.247-41.247v-494.961c0-271.326 379.599-442.758 395.711-449.847 5.156-2.578 10.956-3.867 16.756-3.867s11.601 1.289 16.756 3.867c16.112 7.089 395.711 178.521 395.711 449.847v494.961z" />
<glyph unicode="&#xe911;" glyph-name="add-contact" d="M355.265 456.707c-51.919 0-96.245 18.367-132.98 55.102s-55.102 81.061-55.102 132.98c0 51.919 18.367 96.245 55.102 132.98s81.061 55.102 132.98 55.102c51.919 0 96.245-18.367 132.98-55.102s55.102-81.061 55.102-132.98c0-51.919-18.367-96.245-55.102-132.98s-81.061-55.102-132.98-55.102v0zM825.469 394.014h172.408c4.245 0 7.918-1.551 11.020-4.653s4.653-6.775 4.653-11.020v-94.041c0-4.245-1.551-7.918-4.653-11.020s-6.775-4.653-11.020-4.653h-172.408v-172.408c0-4.245-1.551-7.918-4.653-11.020s-6.775-4.653-11.020-4.653h-94.041c-4.245 0-7.918 1.551-11.020 4.653s-4.653 6.775-4.653 11.020v172.408h-172.408c-4.245 0-7.918 1.551-11.020 4.653s-4.653 6.775-4.653 11.020v94.041c0 4.245 1.551 7.918 4.653 11.020s6.775 4.653 11.020 4.653h172.408v172.408c0 4.245 1.551 7.918 4.653 11.020s6.775 4.653 11.020 4.653h94.041c4.245 0 7.918-1.551 11.020-4.653s4.653-6.775 4.653-11.020v-172.408zM464.98 284.299c0-16.98 6.204-31.673 18.612-44.082s27.102-18.612 44.082-18.612h125.388v-116.571c-22.204-16.327-50.122-24.49-83.755-24.49h-428.082c-39.51 0-71.184 11.265-95.020 33.796s-35.755 53.551-35.755 93.061c0 17.306 0.571 34.204 1.714 50.694s3.429 34.286 6.857 53.388c3.429 19.102 7.755 36.816 12.98 53.143s12.245 32.245 21.061 47.755c8.816 15.51 18.939 28.735 30.367 39.673s25.388 19.673 41.878 26.204c16.49 6.531 34.694 9.796 54.612 9.796 6.204 0 12.571-2.775 19.102-8.327 25.796-19.918 51.020-34.857 75.673-44.816s51.51-14.939 80.571-14.939c29.061 0 55.918 4.98 80.571 14.939s49.877 24.898 75.673 44.816c6.531 5.551 12.898 8.327 19.102 8.327 43.102 0 78.53-15.673 106.286-47.020h-109.224c-16.98 0-31.673-6.204-44.082-18.612s-18.612-27.102-18.612-44.082v-94.041z" />
<glyph unicode="&#xe912;" glyph-name="address" horiz-adv-x="683" d="M512 618.667c0 47.111-16.667 87.333-50 120.667s-73.555 50-120.667 50c-47.111 0-87.333-16.667-120.667-50s-50-73.555-50-120.667c0-47.111 16.667-87.333 50-120.667s73.555-50 120.667-50c47.111 0 87.333 16.667 120.667 50s50 73.555 50 120.667v0zM682.667 618.667c0-48.445-7.333-88.222-22-119.333l-242.667-516c-7.111-14.667-17.667-26.222-31.667-34.667s-29-12.667-45-12.667c-16 0-31 4.222-45 12.667s-24.333 20-31 34.667l-243.333 516c-14.667 31.111-22 70.889-22 119.333 0 94.223 33.333 174.666 100 241.333s147.111 100 241.333 100c94.223 0 174.666-33.333 241.333-100s100-147.111 100-241.333v0z" />
<glyph unicode="&#xe913;" glyph-name="archive" d="M390.095 557.714v-365.714c0-5.926-1.905-10.794-5.714-14.603s-8.677-5.714-14.603-5.714h-40.635c-5.926 0-10.794 1.905-14.603 5.714s-5.714 8.677-5.714 14.603v365.714c0 5.926 1.905 10.794 5.714 14.603s8.677 5.714 14.603 5.714h40.635c5.926 0 10.794-1.905 14.603-5.714s5.714-8.677 5.714-14.603v0zM552.635 557.714v-365.714c0-5.926-1.905-10.794-5.714-14.603s-8.677-5.714-14.603-5.714h-40.635c-5.926 0-10.794 1.905-14.603 5.714s-5.714 8.677-5.714 14.603v365.714c0 5.926 1.905 10.794 5.714 14.603s8.677 5.714 14.603 5.714h40.635c5.926 0 10.794-1.905 14.603-5.714s5.714-8.677 5.714-14.603v0zM715.175 557.714v-365.714c0-5.926-1.905-10.794-5.714-14.603s-8.677-5.714-14.603-5.714h-40.635c-5.926 0-10.794 1.905-14.603 5.714s-5.714 8.677-5.714 14.603v365.714c0 5.926 1.905 10.794 5.714 14.603s8.677 5.714 14.603 5.714h40.635c5.926 0 10.794-1.905 14.603-5.714s5.714-8.677 5.714-14.603v0zM796.444 98.032v601.905h-568.889v-601.905c0-9.312 1.481-17.884 4.444-25.714s6.032-13.545 9.206-17.143c3.175-3.598 5.397-5.397 6.667-5.397h528.254c1.27 0 3.492 1.799 6.667 5.397s6.243 9.312 9.206 17.143c2.963 7.831 4.444 16.402 4.444 25.714v0zM369.778 781.206h284.444l-30.476 74.286c-2.963 3.81-6.561 6.138-10.794 6.984h-201.27c-4.233-0.847-7.831-3.175-10.794-6.984l-31.111-74.286zM958.984 760.889v-40.635c0-5.926-1.905-10.794-5.714-14.603s-8.677-5.714-14.603-5.714h-60.952v-601.905c0-35.132-9.947-65.503-29.841-91.111s-43.809-38.413-71.746-38.413h-528.254c-27.937 0-51.852 12.381-71.746 37.143s-29.841 54.709-29.841 89.841v604.444h-60.952c-5.926 0-10.794 1.905-14.603 5.714s-5.714 8.677-5.714 14.603v40.635c0 5.926 1.905 10.794 5.714 14.603s8.677 5.714 14.603 5.714h196.19l44.444 106.032c6.349 15.661 17.778 28.995 34.286 40s33.227 16.508 50.159 16.508h203.175c16.931 0 33.651-5.503 50.159-16.508s27.936-24.339 34.286-40l44.444-106.032h196.19c5.926 0 10.794-1.905 14.603-5.714s5.714-8.677 5.714-14.603v0z" />
<glyph unicode="&#xe914;" glyph-name="area-chart" d="M1020.82 128.186v-63.602h-1017.64v763.23h63.602v-699.627h954.037zM830.012 637.005l127.205-445.217h-826.832v286.211l222.609 286.211 286.211-286.211 190.807 159.006z" />
<glyph unicode="&#xe915;" glyph-name="attention" d="M584.693 129.834v107.903c0 5.301-1.798 9.749-5.395 13.346s-7.856 5.395-12.778 5.395h-109.039c-4.922 0-9.181-1.798-12.778-5.395s-5.395-8.045-5.395-13.346v-107.903c0-5.301 1.798-9.749 5.395-13.346s7.856-5.395 12.778-5.395h109.039c4.922 0 9.181 1.798 12.778 5.395s5.395 8.045 5.395 13.346v0zM583.557 342.233l10.222 260.672c0 4.543-1.893 8.14-5.679 10.79-4.922 4.165-9.465 6.247-13.63 6.247h-124.941c-4.165 0-8.708-2.082-13.63-6.247-3.786-2.65-5.679-6.626-5.679-11.926l9.655-259.536c0-3.786 1.893-6.91 5.679-9.371s8.329-3.691 13.63-3.691h105.064c5.301 0 9.749 1.23 13.346 3.691s5.584 5.584 5.963 9.371v0zM575.606 872.663l436.156-799.62c13.251-23.852 12.873-47.704-1.136-71.557-6.436-10.98-15.239-19.688-26.408-26.124s-23.19-9.655-36.062-9.655h-872.313c-12.873 0-24.893 3.218-36.062 9.655s-19.972 15.144-26.408 26.124c-14.009 23.852-14.387 47.704-1.136 71.557l436.156 799.62c6.436 11.737 15.334 21.013 26.692 27.828s23.663 10.222 36.914 10.222c13.251 0 25.556-3.407 36.914-10.222s20.255-16.091 26.692-27.828v0z" />
<glyph unicode="&#xe916;" glyph-name="automation" d="M270.749 525.594h21.952c0.408-0.075 0.816-0.207 1.224-0.232 5.027-0.295 10.060-0.477 15.080-0.872 10.693-0.853 21.349-2.102 31.798-4.625 8.566-2.065 14.735-9.005 15.889-17.747 1.939-14.672 3.872-29.344 5.717-44.029 0.169-1.374 0.734-1.914 1.933-2.353 2.429-0.885 4.832-1.826 7.135-2.943 1.318-0.64 2.203-0.533 3.357 0.358 11.277 8.742 22.604 17.414 33.913 26.106 8.717 6.696 17.414 7.091 26.589 1.111 16.291-10.637 30.85-23.389 44.55-37.126 13.492-13.53 25.993-27.901 36.429-43.966 5.692-8.767 5.24-17.697-1.155-26.012-8.804-11.453-17.596-22.912-26.432-34.339-0.766-0.979-0.866-1.732-0.345-2.862 1.117-2.385 2.146-4.82 3.006-7.298 0.483-1.381 1.23-1.933 2.636-2.102 14.214-1.807 28.403-3.703 42.61-5.491 10.235-1.286 17.007-7.236 19.259-17.32 2.843-12.727 4.161-25.654 4.882-38.657 0.816-14.747 0.709-29.488-0.377-44.223-0.847-11.296-2.159-22.548-4.694-33.605-2.021-8.842-8.993-15.080-18.004-16.272-14.678-1.908-29.344-3.834-44.029-5.729-1.167-0.151-1.738-0.621-2.146-1.726-0.916-2.529-1.952-5.033-3.088-7.462-0.596-1.249-0.471-2.071 0.377-3.169 8.754-11.283 17.433-22.598 26.125-33.913 6.765-8.804 7.135-17.477 1.073-26.746-10.329-15.783-22.617-29.928-35.889-43.263-13.812-13.869-28.503-26.746-44.951-37.465-8.98-5.861-17.835-5.441-26.307 1.086-11.446 8.798-22.893 17.615-34.383 26.382-0.54 0.414-1.563 0.69-2.165 0.464-2.918-1.061-5.799-2.265-8.629-3.539-0.515-0.238-1.073-0.954-1.148-1.512-1.983-14.779-3.928-29.576-5.83-44.374-1.13-8.804-7.411-15.959-16.090-17.967-12.526-2.906-25.278-4.23-38.086-5.039-4.355-0.276-8.729-0.496-13.084-0.728h-15.469c-1.55 0.113-3.1 0.27-4.644 0.333-15.18 0.546-30.254 1.958-45.146 5.089-9.576 2.008-16.216 8.867-17.446 18.161-1.958 14.791-3.866 29.595-5.855 44.368-0.088 0.653-0.747 1.475-1.349 1.751-2.548 1.18-5.209 2.115-7.763 3.282-1.18 0.546-1.989 0.464-3.050-0.364-11.371-8.804-22.792-17.552-34.195-26.319-8.478-6.52-17.314-6.909-26.313-1.061-16.316 10.618-30.863 23.37-44.581 37.107-13.574 13.611-26.156 28.070-36.649 44.248-5.51 8.497-5.083 17.552 1.086 25.573 8.761 11.409 17.521 22.83 26.338 34.195 1.023 1.318 1.161 2.303 0.408 3.797-1.18 2.341-2.121 4.826-3.018 7.298-0.364 1.010-0.935 1.362-1.933 1.487-14.145 1.82-28.277 3.69-42.435 5.478-11.333 1.443-17.829 7.367-20.151 18.531-3.464 16.674-4.776 33.561-5.102 50.561-0.038 1.901-0.169 3.815-0.257 5.717v0.722c0.069 0.533 0.176 1.054 0.195 1.588 0.301 7.606 0.433 15.231 0.916 22.824 0.722 11.434 2.14 22.786 4.681 33.975 1.895 8.321 8.635 14.823 16.781 16.059 6.395 0.973 12.821 1.726 19.241 2.56 8.673 1.142 17.345 2.284 26.024 3.376 1.161 0.144 1.719 0.621 2.127 1.726 0.941 2.579 1.989 5.127 3.15 7.618 0.527 1.136 0.42 1.883-0.339 2.862-8.804 11.377-17.559 22.792-26.332 34.195-6.545 8.497-6.978 17.352-1.155 26.307 10.687 16.417 23.514 31.051 37.345 44.832 13.58 13.524 27.995 26.062 44.135 36.498 8.497 5.491 17.546 5.020 25.56-1.148 11.503-8.848 23-17.697 34.534-26.501 0.596-0.446 1.669-0.797 2.303-0.571 2.931 1.048 5.792 2.265 8.629 3.539 0.521 0.232 1.086 0.941 1.161 1.5 1.958 14.49 3.885 28.98 5.736 43.483 1.312 10.235 7.361 16.975 17.408 19.165 11.854 2.585 23.878 3.91 35.965 4.688 3.596 0.201 7.173 0.439 10.756 0.671v0zM246.437 481.402c-0.044-0.151-0.132-0.314-0.144-0.489-1.807-13.724-3.665-27.443-5.384-41.173-1.155-9.2-5.805-15.632-14.622-18.663-10.041-3.445-19.793-7.524-29.35-12.149-7.876-3.809-15.5-2.949-22.485 2.334-7.888 5.968-15.689 12.043-23.539 18.073-3.546 2.736-7.104 5.46-10.756 8.259-18.72-14.741-35.375-31.346-49.99-50.009 0.483-0.653 0.841-1.136 1.205-1.607 8.365-10.882 16.768-21.744 25.089-32.658 5.171-6.784 6.282-14.277 2.604-21.977-4.782-10.009-9.024-20.213-12.72-30.668-2.749-7.775-8.597-12.381-16.705-13.555-13.819-1.996-27.675-3.709-41.531-5.428-1.644-0.201-2.115-0.853-2.203-2.284-0.596-10.11-1.45-20.207-1.789-30.329-0.395-12.118 0.408-24.211 1.776-36.26 0.132-1.086 0.031-2.19 1.701-2.397 13.197-1.663 26.37-3.527 39.579-5.064 10.022-1.174 16.749-6.131 19.899-15.827 3.131-9.639 7.179-18.895 11.635-28.001 3.966-8.077 3.088-15.814-2.36-22.943-7.681-10.066-15.425-20.063-23.131-30.097-1.023-1.318-2.033-2.648-3.081-4.016 14.741-18.707 31.333-35.331 49.99-49.978 0.671 0.496 1.249 0.916 1.82 1.343 10.831 8.328 21.644 16.693 32.519 24.97 6.665 5.077 14.076 6.25 21.657 2.686 10.198-4.801 20.558-9.125 31.17-12.921 7.518-2.686 12.049-8.378 13.26-16.316 1.356-8.88 2.404-17.816 3.571-26.721 0.747-5.642 1.487-11.277 2.222-16.875 0.351-0.119 0.565-0.232 0.803-0.251 3.696-0.389 7.386-0.86 11.089-1.142 19.128-1.399 38.218-1.205 57.282 1.010 1.117 0.132 1.625 0.42 1.782 1.669 1.707 13.492 3.539 26.972 5.259 40.458 1.18 9.275 5.949 15.638 14.86 18.67 9.758 3.326 19.272 7.217 28.503 11.829 8.246 4.104 16.109 3.27 23.426-2.347 8.133-6.244 16.26-12.507 24.393-18.751 3.163-2.429 6.338-4.857 9.451-7.242 0.276 0.144 0.389 0.188 0.483 0.257 18.199 14.277 34.459 30.505 48.823 48.629 0.879 1.098 0.358 1.644-0.251 2.429-8.516 11.070-17.101 22.096-25.516 33.229-4.914 6.514-5.955 13.825-2.491 21.205 4.838 10.311 9.168 20.791 13.053 31.503 2.774 7.662 8.704 12.043 16.806 13.16 12.94 1.789 25.899 3.414 38.845 5.102 4.242 0.559 4.242 0.565 4.832 4.838 0.069 0.477 0.126 0.948 0.169 1.437 1.519 15.049 1.895 30.16 1.061 45.265-0.339 6.043-0.979 12.068-1.506 18.098-0.082 0.954-0.176 1.751-1.569 1.927-13.731 1.732-27.449 3.558-41.173 5.353-8.779 1.148-14.911 5.83-17.835 14.145-3.558 10.129-7.587 20.025-12.3 29.677-3.828 7.876-2.931 15.488 2.353 22.485 4.324 5.742 8.754 11.415 13.141 17.119 4.38 5.698 8.767 11.396 13.197 17.17-14.716 18.701-31.333 35.369-49.997 49.997-0.659-0.489-1.148-0.847-1.619-1.205-10.882-8.365-21.751-16.755-32.658-25.083-6.545-4.995-13.875-6.326-21.311-2.862-10.499 4.876-21.155 9.269-32.011 13.254-7.292 2.686-11.66 8.346-12.802 16.065-1.6 10.725-2.887 21.493-4.311 32.25-0.502 3.841-1.010 7.681-1.512 11.453-15.149 2.899-59.586 2.849-70.655-0.056v0zM281.768 112.524c-73.636-0.006-133.567 59.924-133.523 133.542 0.038 73.68 59.906 133.473 133.617 133.435 73.555-0.038 133.41-59.975 133.347-133.511-0.075-73.605-59.899-133.454-133.441-133.467v0zM281.699 337.631c-50.379-0.013-91.534-41.104-91.546-91.408-0.019-50.668 40.872-91.653 91.515-91.741 50.448-0.088 91.628 40.991 91.647 91.44 0.006 50.599-41.085 91.728-91.616 91.71v0zM722.582 954.835h21.952c0.408-0.075 0.816-0.207 1.224-0.232 5.027-0.295 10.060-0.477 15.080-0.872 10.693-0.853 21.349-2.102 31.798-4.625 8.566-2.065 14.735-9.005 15.889-17.747 1.939-14.672 3.872-29.344 5.717-44.029 0.169-1.374 0.734-1.914 1.933-2.353 2.429-0.885 4.832-1.826 7.135-2.943 1.318-0.64 2.203-0.533 3.357 0.358 11.277 8.742 22.604 17.414 33.913 26.106 8.717 6.696 17.414 7.091 26.589 1.111 16.291-10.637 30.85-23.389 44.55-37.126 13.492-13.53 25.993-27.901 36.429-43.966 5.692-8.767 5.24-17.697-1.155-26.012-8.804-11.453-17.596-22.912-26.432-34.339-0.766-0.979-0.866-1.732-0.345-2.862 1.117-2.385 2.146-4.82 3.006-7.298 0.483-1.381 1.23-1.933 2.636-2.102 14.214-1.807 28.403-3.703 42.61-5.491 10.235-1.286 17.007-7.236 19.259-17.32 2.843-12.727 4.161-25.654 4.882-38.657 0.816-14.747 0.709-29.488-0.377-44.223-0.847-11.296-2.159-22.548-4.694-33.605-2.021-8.842-8.993-15.080-18.004-16.272-14.678-1.908-29.344-3.834-44.029-5.729-1.167-0.151-1.738-0.621-2.146-1.726-0.916-2.529-1.952-5.033-3.088-7.462-0.596-1.249-0.471-2.071 0.377-3.169 8.754-11.283 17.433-22.598 26.125-33.913 6.765-8.804 7.135-17.477 1.073-26.746-10.329-15.783-22.617-29.928-35.889-43.263-13.812-13.869-28.503-26.746-44.951-37.465-8.98-5.861-17.835-5.441-26.307 1.086-11.446 8.798-22.893 17.615-34.383 26.382-0.54 0.414-1.563 0.69-2.165 0.464-2.918-1.061-5.799-2.265-8.629-3.539-0.515-0.238-1.073-0.954-1.148-1.512-1.983-14.779-3.928-29.576-5.83-44.374-1.13-8.804-7.411-15.959-16.090-17.967-12.526-2.906-25.278-4.23-38.086-5.039-4.355-0.276-8.729-0.496-13.084-0.728h-15.469c-1.55 0.113-3.1 0.27-4.644 0.333-15.18 0.546-30.254 1.958-45.146 5.089-9.576 2.008-16.216 8.867-17.446 18.161-1.958 14.791-3.866 29.595-5.855 44.368-0.088 0.653-0.747 1.475-1.349 1.751-2.548 1.18-5.209 2.115-7.763 3.282-1.18 0.546-1.989 0.464-3.050-0.364-11.371-8.804-22.792-17.552-34.195-26.319-8.478-6.52-17.314-6.909-26.313-1.061-16.316 10.618-30.863 23.37-44.581 37.107-13.574 13.611-26.156 28.070-36.649 44.248-5.51 8.497-5.083 17.552 1.086 25.573 8.761 11.409 17.521 22.83 26.338 34.195 1.023 1.318 1.161 2.303 0.408 3.797-1.18 2.341-2.121 4.826-3.018 7.298-0.364 1.010-0.935 1.362-1.933 1.487-14.145 1.82-28.277 3.69-42.435 5.478-11.333 1.443-17.829 7.367-20.151 18.531-3.464 16.674-4.776 33.561-5.102 50.561-0.038 1.901-0.169 3.815-0.257 5.717v0.722c0.069 0.533 0.176 1.054 0.195 1.588 0.301 7.606 0.433 15.231 0.916 22.824 0.722 11.434 2.14 22.786 4.681 33.975 1.895 8.321 8.635 14.823 16.781 16.059 6.395 0.973 12.821 1.726 19.241 2.56 8.673 1.142 17.345 2.284 26.024 3.376 1.161 0.144 1.719 0.621 2.127 1.726 0.941 2.579 1.989 5.127 3.15 7.618 0.527 1.136 0.42 1.883-0.339 2.862-8.804 11.377-17.559 22.792-26.332 34.195-6.545 8.497-6.978 17.352-1.155 26.307 10.687 16.417 23.514 31.051 37.345 44.832 13.58 13.524 27.995 26.062 44.135 36.498 8.497 5.491 17.546 5.020 25.56-1.148 11.503-8.848 23-17.697 34.534-26.501 0.596-0.446 1.669-0.797 2.303-0.571 2.931 1.048 5.792 2.265 8.629 3.539 0.521 0.232 1.086 0.941 1.161 1.5 1.958 14.49 3.885 28.98 5.736 43.483 1.312 10.235 7.361 16.975 17.408 19.165 11.854 2.585 23.878 3.91 35.965 4.688 3.596 0.201 7.173 0.439 10.756 0.671v0zM698.271 910.643c-0.044-0.151-0.132-0.314-0.144-0.489-1.807-13.724-3.665-27.443-5.384-41.173-1.155-9.2-5.805-15.632-14.622-18.663-10.041-3.445-19.793-7.524-29.35-12.149-7.876-3.809-15.5-2.949-22.485 2.334-7.888 5.968-15.689 12.043-23.539 18.073-3.546 2.736-7.104 5.46-10.756 8.259-18.72-14.741-35.375-31.346-49.99-50.009 0.483-0.653 0.841-1.136 1.205-1.607 8.365-10.882 16.768-21.744 25.089-32.658 5.171-6.784 6.282-14.277 2.604-21.977-4.782-10.009-9.024-20.213-12.72-30.668-2.749-7.775-8.597-12.381-16.705-13.555-13.819-1.996-27.675-3.709-41.531-5.428-1.644-0.201-2.115-0.853-2.203-2.284-0.596-10.11-1.45-20.207-1.789-30.329-0.395-12.118 0.408-24.211 1.776-36.26 0.132-1.086 0.031-2.19 1.701-2.397 13.197-1.663 26.37-3.527 39.579-5.064 10.022-1.174 16.749-6.131 19.899-15.827 3.131-9.639 7.179-18.895 11.635-28.001 3.966-8.077 3.088-15.814-2.36-22.943-7.681-10.066-15.425-20.063-23.131-30.097-1.023-1.318-2.033-2.648-3.081-4.016 14.741-18.707 31.333-35.331 49.99-49.978 0.671 0.496 1.249 0.916 1.82 1.343 10.831 8.328 21.644 16.693 32.519 24.97 6.665 5.077 14.076 6.25 21.657 2.686 10.198-4.801 20.558-9.125 31.17-12.921 7.518-2.686 12.049-8.378 13.26-16.316 1.356-8.88 2.404-17.816 3.571-26.721 0.747-5.642 1.487-11.277 2.222-16.875 0.351-0.119 0.565-0.232 0.803-0.251 3.696-0.389 7.386-0.86 11.089-1.142 19.128-1.399 38.218-1.205 57.282 1.010 1.117 0.132 1.625 0.42 1.782 1.669 1.707 13.492 3.539 26.972 5.259 40.458 1.18 9.275 5.949 15.638 14.86 18.67 9.758 3.326 19.272 7.217 28.503 11.829 8.246 4.104 16.109 3.27 23.426-2.347 8.133-6.244 16.26-12.507 24.393-18.751 3.163-2.429 6.338-4.857 9.451-7.242 0.276 0.144 0.389 0.188 0.483 0.257 18.199 14.277 34.459 30.505 48.823 48.629 0.879 1.098 0.358 1.644-0.251 2.429-8.516 11.070-17.101 22.096-25.516 33.229-4.914 6.514-5.955 13.825-2.491 21.205 4.838 10.311 9.168 20.791 13.053 31.503 2.774 7.662 8.704 12.043 16.806 13.16 12.94 1.789 25.899 3.414 38.845 5.102 4.242 0.559 4.242 0.565 4.832 4.838 0.069 0.477 0.126 0.948 0.169 1.437 1.519 15.049 1.895 30.16 1.061 45.265-0.339 6.043-0.979 12.068-1.506 18.098-0.082 0.954-0.176 1.751-1.569 1.927-13.731 1.732-27.449 3.558-41.173 5.353-8.779 1.148-14.911 5.83-17.835 14.145-3.558 10.129-7.587 20.025-12.3 29.677-3.828 7.876-2.931 15.488 2.353 22.485 4.324 5.742 8.754 11.415 13.141 17.119 4.38 5.698 8.767 11.396 13.197 17.17-14.716 18.701-31.333 35.369-49.997 49.997-0.659-0.489-1.148-0.847-1.619-1.205-10.882-8.365-21.751-16.755-32.658-25.083-6.545-4.995-13.875-6.326-21.311-2.862-10.499 4.876-21.155 9.269-32.011 13.254-7.292 2.686-11.66 8.346-12.802 16.065-1.6 10.725-2.887 21.493-4.311 32.25-0.502 3.841-1.010 7.681-1.512 11.453-15.149 2.899-59.586 2.849-70.655-0.056v0zM733.602 541.765c-73.636-0.006-133.567 59.924-133.523 133.542 0.038 73.68 59.906 133.473 133.617 133.435 73.555-0.038 133.41-59.975 133.347-133.511-0.075-73.605-59.899-133.454-133.441-133.467v0zM733.533 766.873c-50.379-0.013-91.534-41.104-91.546-91.408-0.019-50.668 40.872-91.653 91.515-91.741 50.448-0.088 91.628 40.991 91.647 91.44 0.006 50.599-41.085 91.728-91.616 91.71v0z" />
<glyph unicode="&#xe917;" glyph-name="back" horiz-adv-x="649" d="M630.154 54.154l-118.154-118.154-512 512 512 512 118.154-118.154-393.846-393.846z" />
<glyph unicode="&#xe918;" glyph-name="bar-chart" d="M321.193 446.198v-254.41h-127.205v254.41h127.205zM512 700.608v-508.82h-127.205v508.82h127.205zM1020.82 128.186v-63.602h-1017.64v763.23h63.602v-699.627h954.037zM702.807 573.403v-381.615h-127.205v381.615h127.205zM893.615 764.21v-572.422h-127.205v572.422h127.205z" />
<glyph unicode="&#xe919;" glyph-name="caret-down" d="M1013.551 677.878c0-16.98-6.204-31.673-18.612-44.082l-438.857-438.857c-12.408-12.408-27.102-18.612-44.082-18.612s-31.673 6.204-44.082 18.612l-438.857 438.857c-12.408 12.408-18.612 27.102-18.612 44.082s6.204 31.673 18.612 44.082c12.408 12.408 27.102 18.612 44.082 18.612h877.714c16.98 0 31.673-6.204 44.082-18.612s18.612-27.102 18.612-44.082v0z" />
<glyph unicode="&#xe91a;" glyph-name="certificate" d="M912.879 448l90.989-89.011c13.187-12.308 17.582-27.692 13.187-46.154-5.275-18.022-16.703-29.231-34.286-33.626l-123.956-31.648 34.945-122.637c5.275-18.022 1.099-33.407-12.527-46.154-12.747-13.626-28.132-17.802-46.154-12.527l-122.637 34.945-31.648-123.956c-4.396-17.583-15.604-29.011-33.626-34.286-5.275-0.879-9.451-1.319-12.527-1.319-13.626 0-24.835 4.835-33.626 14.505l-89.011 90.989-89.011-90.989c-12.308-13.187-27.692-17.582-46.154-13.187-18.022 4.835-29.231 16.264-33.626 34.286l-31.648 123.956-122.637-34.945c-18.022-5.275-33.407-1.099-46.154 12.527-13.626 12.747-17.802 28.132-12.527 46.154l34.945 122.637-123.956 31.648c-17.583 4.396-29.011 15.604-34.286 33.626-4.396 18.462 0 33.846 13.187 46.154l90.989 89.011-90.989 89.011c-13.187 12.308-17.582 27.692-13.187 46.154 5.275 18.022 16.703 29.231 34.286 33.626l123.956 31.648-34.945 122.637c-5.275 18.022-1.099 33.407 12.527 46.154 12.747 13.626 28.132 17.802 46.154 12.527l122.637-34.945 31.648 123.956c4.396 18.022 15.604 29.231 33.626 33.626 18.022 5.275 33.407 1.099 46.154-12.527l89.011-91.648 89.011 91.648c12.747 13.187 28.132 17.363 46.154 12.527 18.022-4.396 29.231-15.604 33.626-33.626l31.648-123.956 122.637 34.945c18.022 5.275 33.407 1.099 46.154-12.527 13.626-12.747 17.802-28.132 12.527-46.154l-34.945-122.637 123.956-31.648c17.583-4.396 29.011-15.604 34.286-33.626 4.396-18.462 0-33.846-13.187-46.154l-90.989-89.011z" />
<glyph unicode="&#xe91b;" glyph-name="chat" d="M865.037 811.784c-197.622 197.622-519.18 197.622-716.802 0-185.528-185.528-197.986-482.268-31.271-682.367-16.447-33.483-43.001-72.537-82.839-92.092-18.085-8.875-28.206-28.248-25.168-48.181 3.038-19.989 18.463-35.499 38.41-38.62 9.617-1.512 23.306-2.982 40.006-2.982 44.821 0 111.311 10.708 178.949 59.743 75.504-40.748 157.938-60.919 239.965-60.919 131.146 0 261.004 50.84 358.751 148.601 197.622 197.636 197.622 519.194 0 716.816v0zM826.291 133.714c-145.676-145.676-371.265-174.581-548.604-70.283-11.156 6.565-25.042 4.255-33.623-4.717-0.714-0.462-1.484-0.826-2.17-1.358-61.395-47.691-121.711-55.907-159.52-55.012 45.717 31.663 74.301 80.334 90.874 118.198 2.534 5.781 2.8 11.94 1.372 17.623-0.49 5.655-2.646 11.198-6.691 15.776-158.064 178.431-149.693 450.367 19.023 619.111 176.261 176.261 463.077 176.261 639.338 0 176.275-176.275 176.275-463.077 0-639.338v0zM746.811 592.437c0-15.132-12.262-27.394-27.394-27.394h-425.591c-15.132 0-27.394 12.262-27.394 27.394s12.262 27.394 27.394 27.394h425.591c15.132-0.014 27.394-12.276 27.394-27.394v0zM746.811 453.383c0-15.132-12.262-27.394-27.394-27.394h-425.591c-15.132 0-27.394 12.262-27.394 27.394s12.262 27.394 27.394 27.394h425.591c15.132-0.014 27.394-12.276 27.394-27.394v0zM719.417 286.934h-425.591c-15.132 0-27.394 12.262-27.394 27.394s12.262 27.394 27.394 27.394h425.591c15.132-0.014 27.394-12.276 27.394-27.394 0-15.132-12.262-27.394-27.394-27.394z" />
<glyph unicode="&#xe91c;" glyph-name="check" d="M1019.844 689.779c0-17.474-6.116-32.327-18.348-44.559l-563.544-563.544c-12.232-12.232-27.085-18.348-44.559-18.348s-32.327 6.116-44.559 18.348l-326.331 326.331c-12.232 12.232-18.348 27.085-18.348 44.559s6.116 32.327 18.348 44.559l89.119 89.119c12.232 12.232 27.085 18.348 44.559 18.348s32.327-6.116 44.559-18.348l192.653-193.309 429.866 430.521c12.232 12.232 27.085 18.348 44.559 18.348s32.327-6.116 44.559-18.348l89.119-89.119c12.232-12.232 18.348-27.085 18.348-44.559v0z" />
<glyph unicode="&#xe91d;" glyph-name="chevron-down" d="M889.127 755.2l115.973-115.2-502.55-499.2-502.55 499.2 115.973 115.2 386.577-384z" />
<glyph unicode="&#xe91e;" glyph-name="chevron-up" d="M125.423 133.183l-115.973 115.2 502.55 499.2 502.55-499.2-115.973-115.2-386.577 384z" />
<glyph unicode="&#xe91f;" glyph-name="circle-full" d="M512 960c-69.334 0-135.6-13.6-198.8-40.8s-117.6-63.6-163.2-109.2c-45.6-45.6-82-100-109.2-163.2s-40.8-129.466-40.8-198.8c0-69.334 13.6-135.6 40.8-198.8s63.6-117.6 109.2-163.2c45.6-45.6 100-82 163.2-109.2s129.466-40.8 198.8-40.8c69.334 0 135.6 13.6 198.8 40.8s117.6 63.6 163.2 109.2c45.6 45.6 82 100 109.2 163.2s40.8 129.466 40.8 198.8c0 69.334-13.6 135.6-40.8 198.8s-63.6 117.6-109.2 163.2c-45.6 45.6-100 82-163.2 109.2s-129.466 40.8-198.8 40.8v0z" />
<glyph unicode="&#xe920;" glyph-name="close" d="M1018.286 140.571c0-22.857-8-42.286-24-58.286l-116.571-116.571c-16-16-35.428-24-58.286-24s-42.286 8-58.286 24l-252 252-252-252c-16-16-35.428-24-58.286-24s-42.286 8-58.286 24l-116.571 116.571c-16 16-24 35.428-24 58.286s8 42.286 24 58.286l252 252-252 252c-16 16-24 35.428-24 58.286s8 42.286 24 58.286l116.571 116.571c16 16 35.428 24 58.286 24s42.286-8 58.286-24l252-252 252 252c16 16 35.428 24 58.286 24s42.286-8 58.286-24l116.571-116.571c16-16 24-35.428 24-58.286s-8-42.286-24-58.286l-252-252 252-252c16-16 24-35.428 24-58.286v0z" />
<glyph unicode="&#xe921;" glyph-name="cms" d="M970.667 949.333h-917.333c-23.467 0-42.667-19.2-42.667-42.667v-230.4h1002.667v230.4c0 23.467-19.2 42.667-42.667 42.667v0zM249.6 772.267c-23.467 0-42.667 19.2-42.667 40.533v0c0 23.467 19.2 42.667 42.667 42.667s42.667-19.2 42.667-42.667c0-23.467-21.333-40.533-42.667-40.533v0zM484.267 772.267c-23.467 0-42.667 19.2-42.667 40.533v0c0 23.467 19.2 42.667 42.667 42.667s42.667-19.2 42.667-42.667c0-23.467-19.2-40.533-42.667-40.533v0zM512 354.133c-46.933 0-85.333-38.4-85.333-85.333s38.4-85.333 85.333-85.333c46.933 0 85.333 38.4 85.333 85.333s-38.4 85.333-85.333 85.333v0zM10.667 593.067v-605.867c0-23.467 19.2-42.667 42.667-42.667h919.467c23.467 0 42.667 19.2 42.667 42.667v605.867h-1004.8zM678.4 228.267h-4.267c-4.267-14.933-10.667-29.867-17.067-42.667l4.267-4.267c17.067-17.067 17.067-42.667 0-59.733-8.533-8.533-19.2-12.8-29.867-12.8s-21.333 4.267-29.867 12.8l-4.267 4.267c-12.8-8.533-27.733-14.933-42.667-17.067v-4.267c0-23.467-19.2-42.667-42.667-42.667s-42.667 19.2-42.667 42.667v4.267c-14.933 4.267-29.867 10.667-42.667 17.067l-4.267-4.267c-8.533-8.533-19.2-12.8-29.867-12.8s-21.333 4.267-29.867 12.8c-17.067 17.067-17.067 42.667 0 59.733l4.267 4.267c-8.533 12.8-14.933 27.733-17.067 42.667h-4.267c-23.467 0-42.667 19.2-42.667 42.667s19.2 42.667 42.667 42.667h4.267c4.267 14.933 10.667 29.867 17.067 42.667l-4.267 4.267c-17.067 17.067-17.067 42.667 0 59.733s42.667 17.067 59.733 0l4.267-4.267c12.8 8.533 27.733 14.933 42.667 17.067v4.267c0 23.467 19.2 42.667 42.667 42.667s42.667-19.2 42.667-42.667v-4.267c14.933-4.267 29.867-10.667 42.667-17.067l4.267 4.267c17.067 17.067 42.667 17.067 59.733 0s17.067-42.667 0-59.733l-4.267-4.267c8.533-12.8 14.933-27.733 17.067-42.667h4.267c23.467 0 42.667-19.2 42.667-42.667s-19.2-42.667-42.667-42.667v0z" />
<glyph unicode="&#xe922;" glyph-name="contact" horiz-adv-x="956" d="M947.2 108.667c0-53.334-16.222-95.444-48.667-126.333s-75.555-46.333-129.333-46.333h-582.667c-53.778 0-96.889 15.444-129.333 46.333s-48.667 73-48.667 126.333c0 23.556 0.778 46.555 2.333 69s4.667 46.667 9.333 72.667c4.667 26 10.556 50.111 17.667 72.333s16.667 43.889 28.667 65c12 21.111 25.778 39.111 41.333 54s34.555 26.778 57 35.667c22.445 8.889 47.222 13.333 74.333 13.333 4 0 13.333-4.778 28-14.333s31.222-20.222 49.667-32c18.445-11.778 42.444-22.444 72-32s59.222-14.333 89-14.333c29.778 0 59.444 4.778 89 14.333s53.555 20.222 72 32c18.445 11.778 35 22.444 49.667 32s24 14.333 28 14.333c27.111 0 51.889-4.444 74.333-13.333s41.444-20.778 57-35.667c15.556-14.889 29.333-32.889 41.333-54s21.556-42.778 28.667-65c7.111-22.222 13-46.333 17.667-72.333s7.778-50.222 9.333-72.667c1.556-22.445 2.333-45.444 2.333-69v0zM733.867 704c0-70.667-25-131-75-181s-110.333-75-181-75c-70.667 0-131 25-181 75s-75 110.333-75 181c0 70.667 25 131 75 181s110.333 75 181 75c70.667 0 131-25 181-75s75-110.333 75-181v0z" />
<glyph unicode="&#xe923;" glyph-name="contact-empty" d="M510.865 298.065c118.829 0 215.496 96.598 215.496 215.427v196.947c0 118.829-96.667 215.427-215.496 215.427-118.76 0-215.427-96.598-215.427-215.427v-196.947c0-118.863 96.667-215.427 215.427-215.427v0 0zM363.355 700.193c0 87.964 66.625 159.609 148.616 159.609 82.020 0 148.674-71.615 148.674-159.609v-176.204c0-87.964-66.625-159.671-148.674-159.671-81.963 0-148.616 71.676-148.616 159.671v176.204zM66.065 67.028c4.804 48.715 32.782 191.712 193.74 267.963 54.659-81.049 149.792-130.773 252.196-130.773s197.537 49.724 252.196 130.773c161.022-76.22 188.903-219.248 193.74-267.963h-891.871zM756.558 387.451c-49.598-91.864-143.344-148.957-244.54-148.957s-194.943 57.093-244.54 148.957c-4.794 8.729-15.279 12.377-23.902 8.12-240.712-113.757-243.575-372.751-243.575-375.327 0-5.187 1.966-10.052 5.45-13.629 3.518-3.649 8.209-5.652 13.141-5.652h986.888c4.932 0 9.692 2.039 13.141 5.652 3.518 3.577 5.381 8.442 5.381 13.629-0.034 2.576-2.932 261.57-243.54 375.327-8.761 4.185-19.142 0.644-23.902-8.12z" />
<glyph unicode="&#xe924;" glyph-name="edit" d="M247.51 27.251l59.429 59.429-153.469 153.469-59.429-59.429v-69.878h83.592v-83.592h69.878zM589.061 633.292c0 9.578-4.789 14.367-14.367 14.367-4.354 0-8.054-1.524-11.102-4.571l-353.959-353.959c-3.048-3.048-4.571-6.748-4.571-11.102 0-9.578 4.789-14.367 14.367-14.367 4.354 0 8.054 1.524 11.102 4.571l353.959 353.959c3.048 3.048 4.571 6.748 4.571 11.102v0zM553.796 758.68l271.673-271.673-543.347-543.347h-271.673v271.673l543.347 543.347zM999.837 695.986c0-23.075-8.054-42.667-24.163-58.776l-108.408-108.408-271.673 271.673 108.408 107.755c15.674 16.544 35.265 24.816 58.776 24.816 23.075 0 42.884-8.272 59.429-24.816l153.469-152.816c16.109-16.98 24.163-36.789 24.163-59.429v0z" />
<glyph unicode="&#xe925;" glyph-name="email" d="M950.857 144.457v438.857c-12.191-13.714-25.333-26.286-39.429-37.714-102.096-78.477-183.238-142.857-243.429-193.143-19.429-16.381-35.238-29.143-47.429-38.286s-28.667-18.381-49.429-27.714c-20.762-9.333-40.286-14-58.571-14h-1.143c-18.286 0-37.809 4.667-58.571 14s-37.238 18.571-49.429 27.714c-12.191 9.143-28 21.905-47.429 38.286-60.191 50.286-141.333 114.666-243.429 193.143-14.095 11.429-27.238 24-39.429 37.714v-438.857c0-4.952 1.81-9.238 5.429-12.857s7.905-5.429 12.857-5.429h841.143c4.952 0 9.238 1.81 12.857 5.429s5.429 7.905 5.429 12.857v0zM950.857 745.029v14c0 1.714-0.095 4.19-0.286 7.429s-0.762 5.619-1.714 7.143c-0.952 1.524-2 3.238-3.143 5.143s-2.857 3.333-5.143 4.286c-2.286 0.952-4.952 1.429-8 1.429h-841.143c-4.952 0-9.238-1.81-12.857-5.429s-5.429-7.905-5.429-12.857c0-64 28-118.095 84-162.286 73.524-57.905 149.904-118.285 229.143-181.143 2.286-1.905 8.952-7.524 20-16.857s19.809-16.476 26.286-21.429c6.476-4.952 14.952-10.952 25.429-18s20.095-12.286 28.857-15.714c8.762-3.429 16.952-5.143 24.571-5.143h1.143c7.619 0 15.809 1.714 24.571 5.143s18.381 8.667 28.857 15.714c10.476 7.048 18.952 13.048 25.429 18s15.238 12.095 26.286 21.429c11.048 9.333 17.714 14.952 20 16.857 79.238 62.857 155.619 123.238 229.143 181.143 20.572 16.381 39.714 38.381 57.429 66s26.571 52.667 26.571 75.143v0zM1024 766.171v-621.714c0-25.143-8.952-46.667-26.857-64.571s-39.428-26.857-64.571-26.857h-841.143c-25.143 0-46.667 8.952-64.571 26.857s-26.857 39.428-26.857 64.571v621.714c0 25.143 8.952 46.667 26.857 64.571s39.428 26.857 64.571 26.857h841.143c25.143 0 46.667-8.952 64.571-26.857s26.857-39.428 26.857-64.571v0z" />
<glyph unicode="&#xe926;" glyph-name="export" d="M786.286 84.898c0 10.612-3.878 19.796-11.633 27.551s-16.939 11.633-27.551 11.633c-10.612 0-19.796-3.878-27.551-11.633s-11.633-16.939-11.633-27.551c0-10.612 3.878-19.796 11.633-27.551s16.939-11.633 27.551-11.633c10.612 0 19.796 3.878 27.551 11.633s11.633 16.939 11.633 27.551v0zM943.020 84.898c0 10.612-3.878 19.796-11.633 27.551s-16.939 11.633-27.551 11.633c-10.612 0-19.796-3.878-27.551-11.633s-11.633-16.939-11.633-27.551c0-10.612 3.878-19.796 11.633-27.551s16.939-11.633 27.551-11.633c10.612 0 19.796 3.878 27.551 11.633s11.633 16.939 11.633 27.551v0zM1021.388 222.041v-195.918c0-16.327-5.714-30.204-17.143-41.633s-25.306-17.143-41.633-17.143h-901.224c-16.327 0-30.204 5.714-41.633 17.143s-17.143 25.306-17.143 41.633v195.918c0 16.327 5.714 30.204 17.143 41.633s25.306 17.143 41.633 17.143h261.429c8.571-22.857 22.959-41.633 43.163-56.327s42.755-22.041 67.653-22.041h156.735c24.898 0 47.449 7.347 67.653 22.041s34.592 33.469 43.163 56.327h261.429c16.327 0 30.204-5.714 41.633-17.143s17.143-25.306 17.143-41.633v0zM822.408 618.776c-6.939-16.327-18.98-24.49-36.122-24.49h-156.735v-274.286c0-10.612-3.878-19.796-11.633-27.551s-16.939-11.633-27.551-11.633h-156.735c-10.612 0-19.796 3.878-27.551 11.633s-11.633 16.939-11.633 27.551v274.286h-156.735c-17.143 0-29.184 8.163-36.122 24.49-6.939 15.918-4.082 30 8.571 42.245l274.286 274.286c7.347 7.755 16.531 11.633 27.551 11.633s20.204-3.878 27.551-11.633l274.286-274.286c12.653-12.245 15.51-26.326 8.571-42.245v0z" />
<glyph unicode="&#xe927;" glyph-name="form-email" horiz-adv-x="785" d="M610.393 182.383c0-15.894-6.901-26.49-17.23-26.49h-420.819c-10.329 0-17.23 10.596-17.23 26.49s6.901 26.49 17.23 26.49h420.819c10.329 0 17.23-10.596 17.23-26.49v0zM610.393 337.497c0-15.894-6.901-26.49-17.23-26.49h-420.819c-10.329 0-17.23 10.596-17.23 26.49s6.901 26.49 17.23 26.49h420.819c10.329 0 17.23-10.596 17.23-26.49v0zM610.571 509.841c0-15.894-6.901-26.49-17.23-26.49h-420.998c-10.329 0-17.23 10.596-17.23 26.49s6.901 26.49 17.23 26.49h420.998c10.329 0 17.23-10.596 17.23-26.49v0zM334.625 664.954c0 15.894 6.901 26.49 17.274 26.49h241.263c10.329 0 17.23-10.596 17.23-26.49s-6.901-26.49-17.23-26.49h-241.263c-10.374 0-17.274 10.596-17.274 26.49v0zM712.348 28.427c0-16.651-29.206-33.302-48.707-33.302h-572.55c-17.853 0-32.501 15.004-32.501 33.302v639.955h162.415c35.706 0 64.957 29.963 64.957 66.56v162.371h393.928c17.853 0 32.456-14.959 32.456-33.302v-835.584zM241.308 888.142v-134.945c0-18.966-15.538-34.46-34.504-34.46h-135.034l169.539 169.405zM694.851 960h-420.819c-18.966 0-37.888-13.802-49.953-25.867l-199.947-199.903c-15.494-17.23-24.131-34.46-24.131-49.998v-679.313c0-37.888 31.032-68.92 68.964-68.92h610.349c34.504 0 86.194 27.559 84.458 68.92v886.161c0 37.888-31.032 68.92-68.92 68.92v0z" />
<glyph unicode="&#xe928;" glyph-name="contact-group" d="M316.504 450.769c-57.531-1.776-104.584-24.503-141.162-68.184h-71.38c-29.12 0-53.624 7.191-73.511 21.574s-29.831 35.424-29.831 63.123c0 125.36 22.018 188.039 66.053 188.039 2.131 0 9.855-3.729 23.172-11.186s30.629-15.004 51.937-22.639c21.308-7.635 42.437-11.453 63.39-11.453 23.794 0 47.409 4.084 70.847 12.252-1.776-13.14-2.663-24.859-2.663-35.157 0-49.363 14.382-94.818 43.148-136.368v0zM887.012 111.447c0-42.615-12.962-76.263-38.886-100.944s-60.371-37.022-103.341-37.022h-465.569c-42.97 0-77.417 12.34-103.341 37.022s-38.886 58.329-38.886 100.944c0 18.822 0.621 37.199 1.864 55.133s3.729 37.288 7.458 58.063c3.729 20.775 8.434 40.040 14.116 57.797s13.317 35.069 22.906 51.937c9.588 16.869 20.597 31.251 33.027 43.148s27.611 21.396 45.545 28.499c17.934 7.103 37.732 10.654 59.395 10.654 3.551 0 11.186-3.818 22.906-11.453s24.681-16.158 38.886-25.569c14.205-9.411 33.204-17.934 56.998-25.569s47.764-11.453 71.913-11.453c24.149 0 48.119 3.818 71.913 11.453s42.793 16.158 56.998 25.569c14.205 9.411 27.167 17.934 38.886 25.569s19.354 11.453 22.906 11.453c21.663 0 41.461-3.551 59.395-10.654s33.115-16.602 45.545-28.499c12.429-11.897 23.438-26.279 33.027-43.148s17.224-34.181 22.906-51.937c5.682-17.756 10.387-37.022 14.116-57.797s6.215-40.129 7.458-58.063c1.243-17.934 1.864-36.311 1.864-55.133v0zM341.54 791.689c0-37.643-13.317-69.782-39.952-96.416s-58.773-39.952-96.416-39.952c-37.643 0-69.782 13.317-96.416 39.952s-39.952 58.773-39.952 96.416c0 37.643 13.317 69.782 39.952 96.416s58.773 39.952 96.416 39.952c37.643 0 69.782-13.317 96.416-39.952s39.952-58.773 39.952-96.416v0zM716.552 587.137c0-56.465-19.976-104.673-59.927-144.625s-88.16-59.927-144.625-59.927c-56.465 0-104.673 19.976-144.625 59.927s-59.927 88.16-59.927 144.625c0 56.465 19.976 104.673 59.927 144.625s88.16 59.927 144.625 59.927c56.465 0 104.673-19.976 144.625-59.927s59.927-88.16 59.927-144.625v0zM1023.38 467.282c0-27.7-9.943-48.741-29.831-63.123s-44.39-21.574-73.511-21.574h-71.38c-36.578 43.681-83.632 66.408-141.162 68.184 28.765 41.55 43.148 87.005 43.148 136.368 0 10.299-0.888 22.018-2.663 35.157 23.438-8.168 47.054-12.252 70.847-12.252 20.952 0 42.082 3.818 63.39 11.453s38.62 15.182 51.937 22.639c13.317 7.458 21.041 11.186 23.172 11.186 44.036 0 66.053-62.679 66.053-188.039v0zM955.196 791.689c0-37.643-13.317-69.782-39.952-96.416s-58.773-39.952-96.416-39.952c-37.643 0-69.782 13.317-96.416 39.952s-39.952 58.773-39.952 96.416c0 37.643 13.317 69.782 39.952 96.416s58.773 39.952 96.416 39.952c37.643 0 69.782-13.317 96.416-39.952s39.952-58.773 39.952-96.416v0z" />
<glyph unicode="&#xe929;" glyph-name="info" d="M512-64c-282.77 0-512 229.23-512 512s229.23 512 512 512c282.77 0 512-229.23 512-512s-229.23-512-512-512zM512-17.455c257.063 0 465.455 208.391 465.455 465.455s-208.391 465.455-465.455 465.455c-257.063 0-465.455-208.391-465.455-465.455s208.391-465.455 465.455-465.455zM418.909 564.364v-23.273h46.545v-349.091h-46.545v-23.273h186.182v23.273h-46.545v372.364h-139.636zM500.364 634.182c32.133 0 58.182 26.049 58.182 58.182s-26.049 58.182-58.182 58.182c-32.133 0-58.182-26.049-58.182-58.182s26.049-58.182 58.182-58.182z" />
<glyph unicode="&#xe92a;" glyph-name="lead-inbox" d="M996.172 378.263l-124.88 468.255c-7.551 26.617-32.234 45.215-59.975 45.215h-624.090c-27.772 0-52.424-18.598-59.975-45.215l-124.88-468.255c-1.591-5.679-2.372-11.39-2.372-17.006v-218.431c0-68.931 55.887-124.818 124.818-124.818h748.908c68.931 0 124.818 55.887 124.818 124.818v218.431c0 5.617-0.78 11.327-2.372 17.006v0zM936.135 142.826c0-34.387-28.022-62.409-62.409-62.409h-748.908c-34.419 0-62.409 28.022-62.409 62.409v218.431l124.849 468.099h623.996l124.88-468.099v-218.431zM727.814 750.492h-483.17c-14.136 0-26.524-9.517-30.175-23.185l-107.499-374.454c-2.465-9.393-0.499-19.378 5.43-27.054s15.041-12.17 24.714-12.17h142.542l45.153-90.337c10.61-21.125 32.203-34.481 55.856-34.481h211.13c23.653 0 45.215 13.356 55.825 34.481l45.153 90.337h142.542c9.705 0 18.848 4.525 24.745 12.201s7.864 17.662 5.43 27.054l-107.499 374.454c-3.651 13.668-16.039 23.154-30.175 23.154v0zM744.634 376.038h-51.862c-23.778 0-45.153-13.168-55.825-34.481l-45.153-90.337h-211.13l-45.153 90.337c-10.672 21.313-32.047 34.481-55.825 34.481h-126.285l91.242 343.249h483.17l91.242-343.249h-74.423z" />
<glyph unicode="&#xe92b;" glyph-name="line-chart" d="M1020.82 128.186v-63.602h-1017.64v763.23h63.602v-699.627h954.037zM957.217 748.31v-216.149c0-6.957-3.23-11.843-9.689-14.658s-12.34-1.574-17.64 3.727l-60.124 60.124-314.534-314.534c-3.313-3.313-7.122-4.969-11.429-4.969s-8.116 1.656-11.429 4.969l-115.776 115.776-206.708-206.708-95.404 95.404 290.683 290.683c3.313 3.313 7.122 4.969 11.429 4.969s8.116-1.656 11.429-4.969l115.776-115.776 230.559 230.559-60.124 60.124c-5.3 5.3-6.542 11.18-3.727 17.64s7.702 9.689 14.658 9.689h216.149c4.638 0 8.447-1.491 11.429-4.472s4.472-6.791 4.472-11.429v0z" />
<glyph unicode="&#xe92c;" glyph-name="list-menu" d="M877.714 310.857c0-12.381-4.524-23.095-13.571-32.143l-320-320c-9.048-9.048-19.762-13.571-32.143-13.571s-23.095 4.524-32.143 13.571l-320 320c-9.048 9.048-13.571 19.762-13.571 32.143s4.524 23.095 13.571 32.143c9.048 9.048 19.762 13.571 32.143 13.571h640c12.381 0 23.095-4.524 32.143-13.571s13.571-19.762 13.571-32.143v0zM877.714 585.143c0-12.381-4.524-23.095-13.571-32.143s-19.762-13.571-32.143-13.571h-640c-12.381 0-23.095 4.524-32.143 13.571s-13.571 19.762-13.571 32.143c0 12.381 4.524 23.095 13.571 32.143l320 320c9.048 9.048 19.762 13.571 32.143 13.571s23.095-4.524 32.143-13.571l320-320c9.048-9.048 13.571-19.762 13.571-32.143v0z" />
<glyph unicode="&#xe92d;" glyph-name="lock" horiz-adv-x="819" d="M225.055 509.89h360.088v135.033c0 49.7-17.582 92.132-52.747 127.297s-77.597 52.747-127.297 52.747c-49.7 0-92.132-17.582-127.297-52.747s-52.747-77.597-52.747-127.297v-135.033zM810.198 442.374v-405.099c0-18.755-6.564-34.696-19.692-47.824s-29.070-19.692-47.824-19.692h-675.165c-18.755 0-34.696 6.564-47.824 19.692s-19.692 29.070-19.692 47.824v405.099c0 18.755 6.564 34.696 19.692 47.824s29.070 19.692 47.824 19.692h22.505v135.033c0 86.271 30.945 160.351 92.835 222.242s135.97 92.835 222.242 92.835c86.271 0 160.351-30.945 222.242-92.835s92.835-135.97 92.835-222.242v-135.033h22.505c18.755 0 34.696-6.564 47.824-19.692s19.692-29.070 19.692-47.824v0z" />
<glyph unicode="&#xe92e;" glyph-name="logo" d="M251.536 10.272l0.193-1.758c5.408 0 10.814-0.039 16.222 0.005 68.106 0.551 136.213 1.088 204.319 1.681 135.811 1.18 271.622 2.307 407.433 3.643 44.993 0.44 78.359 34.324 78.33 79.375-0.024 35.461-0.566 70.922-0.885 106.385-1.887 208.747-4.385 417.492-5.212 626.245-0.193 48.466-38.741 83.359-84.29 82.672-166.826-2.511-333.677-3.369-500.52-4.738-76.976-0.631-153.954-0.994-230.929-1.488-34.658-0.223-62.928-12.938-76.964-45.866-5.894-13.835-7.254-30.498-7.159-45.852 1.192-197.070 3.019-394.137 4.709-591.205 0.036-4.213 0.392-8.427 0.728-15.332 126.85 76.976 217.871 184.519 295.625 307.187-5.969 2.182-9.643 3.614-13.378 4.871-44.63 15.061-89.326 29.934-133.876 45.235-14.029 4.818-19.662 13.129-19.217 25.921 0.455 13.134 8.103 20.424 19.967 24.199 1.533 0.489 3.011 1.156 4.552 1.623 145.958 44.301 291.908 88.627 437.889 132.843 23.096 6.995 30.297 4.189 43.027-16.29 52.943-85.165 105.814-170.374 158.697-255.576 20.605-33.197 41.193-66.406 61.735-99.639 6.39-10.34 6.306-20.77-1.108-30.435-7.537-9.83-17.838-11.593-29.327-8.335-2.322 0.658-4.622 1.405-6.922 2.143-42.146 13.545-84.384 26.816-126.366 40.857-9.181 3.072-14.171 0.772-20.697-5.902-47.569-48.636-94.045-98.514-144.020-144.579-83.581-77.041-175.865-142.358-278.16-192.769-17.908-8.826-36.254-16.769-54.397-25.121zM829.553 410.079c-20.581 33.139-41.159 66.278-61.743 99.414-36.344 58.499-72.789 116.933-108.888 175.582-3.865 6.284-7.152 7.788-14.449 5.556-113.143-34.614-226.397-68.878-339.612-103.253-1.374-0.416-2.615-1.258-6.049-2.953 27.448-9.235 52.89-17.795 78.335-26.352 3.814-1.282 7.646-2.508 11.45-3.819 31.112-10.734 36.099-23.273 19.5-51.228-66.387-111.8-145.907-212.741-249.909-291.997-34.399-26.214-72.6-47.678-110.144-69.449-24.381-14.14-42.613-1.676-42.819 26.768-0.977 135.409-1.911 270.819-2.97 406.226-0.648 83.020-1.488 166.035-2.249 249.053-0.648 70.305 53.055 127.641 123.149 128.881 100.326 1.778 200.681 1.838 301.024 2.777 149.102 1.396 298.216 2.191 447.298 4.697 74.216 1.248 132.497-61.844 132.021-131.271-0.863-125.725 1.316-251.474 2.472-377.211 1.101-119.688 2.675-239.373 3.722-359.061 0.464-53.151-29.728-100.464-78.848-119.448-18.283-7.065-39.108-10.229-58.833-10.471-151.924-1.865-303.864-2.421-455.795-3.698-93.087-0.781-186.171-2.629-279.258-2.743-16.89-0.022-34.193 4.68-50.573 9.629-16.892 5.103-22.634 15.076-21.101 29.32 1.386 12.877 10.183 19.422 26.7 23.539 38.194 9.522 77.010 17.572 114.016 30.628 97.443 34.377 183.943 88.844 265.297 151.687 85.412 65.98 162.908 140.346 232.581 222.82 12.56 14.868 19.654 16.965 38.073 11.126 24.935-7.902 49.821-15.954 74.743-23.899 3.713-1.183 7.503-2.131 11.257-3.188 0.532 0.779 1.067 1.56 1.601 2.339z" />
<glyph unicode="&#xe92f;" glyph-name="more" d="M283.429 528.762v-137.143c0-19.048-6.667-35.238-20-48.571s-29.524-20-48.571-20h-137.143c-19.048 0-35.238 6.667-48.571 20s-20 29.524-20 48.571v137.143c0 19.048 6.667 35.238 20 48.571s29.524 20 48.571 20h137.143c19.048 0 35.238-6.667 48.571-20s20-29.524 20-48.571v0zM649.143 528.762v-137.143c0-19.048-6.667-35.238-20-48.571s-29.524-20-48.571-20h-137.143c-19.048 0-35.238 6.667-48.571 20s-20 29.524-20 48.571v137.143c0 19.048 6.667 35.238 20 48.571s29.524 20 48.571 20h137.143c19.048 0 35.238-6.667 48.571-20s20-29.524 20-48.571v0zM1014.857 528.762v-137.143c0-19.048-6.667-35.238-20-48.571s-29.524-20-48.571-20h-137.143c-19.048 0-35.238 6.667-48.571 20s-20 29.524-20 48.571v137.143c0 19.048 6.667 35.238 20 48.571s29.524 20 48.571 20h137.143c19.048 0 35.238-6.667 48.571-20s20-29.524 20-48.571v0z" />
<glyph unicode="&#xe930;" glyph-name="multiselect-share" d="M716.8 673.28l-204.8 204.8-204.8-204.8-40.96 40.96 245.76 245.76 245.76-245.76zM471.040 878.080l40.96 40.96 40.96-40.96v-696.32h-81.92zM1003.52-64h-983.040v655.36h286.72v-76.977h-210.651l5.851-496.463h819.2v491.52h-204.8v81.92h286.72z" />
<glyph unicode="&#xe931;" glyph-name="oil" horiz-adv-x="717" d="M356.174 198.36c0 16.398-4.555 32.112-13.665 47.143-0.455 0.455-3.985 5.58-10.59 15.373s-12.412 18.447-17.422 25.963c-5.010 7.516-10.704 17.536-17.081 30.062s-11.159 24.027-14.348 34.503c-1.822 7.288-6.605 10.932-14.348 10.932s-12.526-3.644-14.348-10.932c-3.188-10.476-7.971-21.977-14.348-34.503s-12.070-22.547-17.081-30.062c-5.010-7.516-10.818-16.17-17.422-25.963s-10.135-14.917-10.59-15.373c-9.11-15.031-13.665-30.745-13.665-47.143 0-24.141 8.54-44.751 25.621-61.832s37.691-25.621 61.832-25.621c24.141 0 44.751 8.54 61.832 25.621s25.621 37.691 25.621 61.832v0zM705.988 285.814c0-96.564-34.161-179.006-102.484-247.329s-150.766-102.484-247.329-102.484c-96.564 0-179.006 34.161-247.329 102.484s-102.484 150.766-102.484 247.329c0 66.046 18.447 128.675 55.342 187.888 2.733 4.099 16.967 24.71 42.702 61.832s48.737 71.511 69.006 103.168c20.269 31.656 42.929 72.194 67.981 121.615s43.954 95.31 56.708 137.671c4.099 13.665 11.843 24.368 23.23 32.112s23.002 11.615 34.845 11.615c11.843 0 23.571-3.872 35.186-11.615s19.244-18.447 22.888-32.112c12.754-42.36 31.656-88.25 56.708-137.671s47.712-89.958 67.981-121.615c20.269-31.656 43.271-66.045 69.006-103.168s39.969-57.733 42.702-61.832c36.895-57.847 55.342-120.476 55.342-187.888v0z" />
<glyph unicode="&#xe932;" glyph-name="pause" d="M512 960c-282.772 0-512-229.228-512-512 0-282.761 229.228-512 512-512 282.761 0 512 229.239 512 512 0 282.772-229.239 512-512 512v0zM512-7.111c-251.358 0-455.111 203.765-455.111 455.111 0 251.358 203.753 455.111 455.111 455.111 251.346 0 455.111-203.753 455.111-455.111 0-251.346-203.765-455.111-455.111-455.111v0zM368.64 673.28h81.92v-491.52h-81.92v491.52zM573.44 673.28h81.92v-491.52h-81.92v491.52z" />
<glyph unicode="&#xe933;" glyph-name="phone" d="M1014.857 165.714c0-12.857-2.381-29.643-7.143-50.357s-9.762-37.024-15-48.929c-10-23.81-39.047-49.047-87.143-75.714-44.762-24.286-89.047-36.429-132.857-36.429-12.857 0-25.357 0.833-37.5 2.5s-25.833 4.643-41.071 8.929c-15.238 4.286-26.548 7.738-33.929 10.357s-20.595 7.5-39.643 14.643c-19.048 7.143-30.714 11.429-35 12.857-46.667 16.667-88.333 36.428-125 59.286-60.953 37.619-123.928 88.928-188.929 153.929s-116.309 127.976-153.929 188.929c-22.857 36.667-42.619 78.333-59.286 125-1.429 4.286-5.714 15.952-12.857 35s-12.024 32.262-14.643 39.643c-2.619 7.381-6.071 18.69-10.357 33.929s-7.262 28.929-8.929 41.071c-1.667 12.143-2.5 24.643-2.5 37.5 0 43.81 12.143 88.095 36.429 132.857 26.667 48.095 51.905 77.143 75.714 87.143 11.905 5.238 28.214 10.238 48.929 15s37.5 7.143 50.357 7.143c6.667 0 11.667-0.714 15-2.143 8.571-2.857 21.19-20.952 37.857-54.286 5.238-9.048 12.381-21.905 21.429-38.571s17.381-31.786 25-45.357c7.619-13.571 15-26.309 22.143-38.214 1.429-1.905 5.595-7.857 12.5-17.857s12.024-18.452 15.357-25.357c3.333-6.905 5-13.69 5-20.357 0-9.524-6.786-21.429-20.357-35.714s-28.333-27.381-44.286-39.286c-15.952-11.905-30.714-24.524-44.286-37.857s-20.357-24.286-20.357-32.857c0-4.286 1.19-9.643 3.571-16.071s4.405-11.31 6.071-14.643c1.667-3.333 5-9.048 10-17.143s7.738-12.619 8.214-13.571c36.191-65.238 77.619-121.19 124.286-167.857s102.619-88.095 167.857-124.286c0.952-0.476 5.476-3.214 13.571-8.214s13.81-8.333 17.143-10c3.333-1.667 8.214-3.69 14.643-6.071s11.786-3.571 16.071-3.571c8.571 0 19.524 6.786 32.857 20.357s25.952 28.333 37.857 44.286c11.905 15.952 25 30.714 39.286 44.286s26.19 20.357 35.714 20.357c6.667 0 13.452-1.667 20.357-5s15.357-8.452 25.357-15.357c10-6.905 15.952-11.071 17.857-12.5 11.905-7.143 24.643-14.524 38.214-22.143s28.69-15.952 45.357-25c16.667-9.048 29.524-16.19 38.571-21.429 33.334-16.667 51.429-29.286 54.286-37.857 1.429-3.333 2.143-8.333 2.143-15v0z" />
<glyph unicode="&#xe935;" glyph-name="plus" d="M994.743 501.638v-131.657c0-18.286-6.4-33.829-19.2-46.629s-28.343-19.2-46.629-19.2h-285.257v-285.257c0-18.286-6.4-33.829-19.2-46.629s-28.343-19.2-46.629-19.2h-131.657c-18.286 0-33.829 6.4-46.629 19.2s-19.2 28.343-19.2 46.629v285.257h-285.257c-18.286 0-33.829 6.4-46.629 19.2s-19.2 28.343-19.2 46.629v131.657c0 18.286 6.4 33.829 19.2 46.629s28.343 19.2 46.629 19.2h285.257v285.257c0 18.286 6.4 33.829 19.2 46.629s28.343 19.2 46.629 19.2h131.657c18.286 0 33.829-6.4 46.629-19.2s19.2-28.343 19.2-46.629v-285.257h285.257c18.286 0 33.829-6.4 46.629-19.2s19.2-28.343 19.2-46.629v0z" />
<glyph unicode="&#xe936;" glyph-name="remove" d="M512-64c-282.77 0-512 229.23-512 512s229.23 512 512 512c282.77 0 512-229.23 512-512s-229.23-512-512-512zM512-17.455c257.063 0 465.455 208.391 465.455 465.455s-208.391 465.455-465.455 465.455c-257.063 0-465.455-208.391-465.455-465.455s208.391-465.455 465.455-465.455zM512 480.913l164.563 164.563 32.913-32.913-164.563-164.563 164.563-164.563-32.913-32.913-164.563 164.563-164.563-164.563-32.913 32.913 164.563 164.563-164.563 164.563 32.913 32.913 164.563-164.563z" />
<glyph unicode="&#xe937;" glyph-name="reply-all" d="M365.714 314.895v-40c0-16-7.428-27.238-22.286-33.714-4.952-1.905-9.714-2.857-14.286-2.857-10.286 0-18.857 3.619-25.714 10.857l-292.571 292.571c-7.238 7.238-10.857 15.809-10.857 25.714s3.619 18.476 10.857 25.714l292.571 292.571c11.048 11.81 24.381 14.476 40 8 14.857-6.476 22.286-17.714 22.286-33.714v-39.429l-226.857-227.429c-7.238-7.238-10.857-15.809-10.857-25.714s3.619-18.476 10.857-25.714l226.857-226.857zM1024 293.181c0-22.095-3.238-47.524-9.714-76.286s-13.809-55.047-22-78.857c-8.191-23.81-17.333-47.619-27.429-71.429s-17.809-41.048-23.143-51.714c-5.333-10.667-9.143-18.286-11.429-22.857-3.048-6.476-8.381-9.714-16-9.714-2.286 0-4 0.19-5.143 0.571-9.524 3.048-13.905 9.524-13.143 19.429 16.381 152.382-3.809 260-60.571 322.857-24.381 27.048-56.857 48.095-97.429 63.143s-91.524 25.048-152.857 30v-143.429c0-16-7.428-27.238-22.286-33.714-4.952-1.905-9.714-2.857-14.286-2.857-10.286 0-18.857 3.619-25.714 10.857l-292.571 292.571c-7.238 7.238-10.857 15.809-10.857 25.714s3.619 18.476 10.857 25.714l292.571 292.571c11.048 11.81 24.381 14.476 40 8 14.857-6.476 22.286-17.714 22.286-33.714v-149.714c156.572-10.667 270.666-52.762 342.286-126.286 64.381-65.905 96.571-162.857 96.571-290.857v0z" />
<glyph unicode="&#xe938;" glyph-name="reply" d="M1024 293.181c0-63.238-24.19-149.142-72.571-257.714-1.143-2.667-3.143-7.238-6-13.714s-5.429-12.19-7.714-17.143c-2.286-4.952-4.762-9.143-7.429-12.571-4.571-6.476-9.905-9.714-16-9.714-5.714 0-10.19 1.905-13.429 5.714s-4.857 8.571-4.857 14.286c0 3.429 0.476 8.476 1.429 15.143s1.429 11.143 1.429 13.429c1.905 25.905 2.857 49.333 2.857 70.286 0 38.476-3.333 72.952-10 103.429s-15.905 56.857-27.714 79.143c-11.81 22.286-27.048 41.524-45.714 57.714s-38.762 29.429-60.286 39.714c-21.524 10.286-46.857 18.381-76 24.286s-58.476 10-88 12.286c-29.524 2.286-62.952 3.429-100.286 3.429h-128v-146.286c0-9.905-3.619-18.476-10.857-25.714s-15.809-10.857-25.714-10.857c-9.905 0-18.476 3.619-25.714 10.857l-292.571 292.571c-7.238 7.238-10.857 15.809-10.857 25.714s3.619 18.476 10.857 25.714l292.571 292.571c7.238 7.238 15.809 10.857 25.714 10.857s18.476-3.619 25.714-10.857c7.238-7.238 10.857-15.809 10.857-25.714v-146.286h128c271.62 0 438.285-76.761 500-230.286 20.191-51.048 30.286-114.476 30.286-190.286v0z" />
<glyph unicode="&#xe939;" glyph-name="reporting" d="M189.089 442.38h-189.089c10.45-265.649 229.11-477.803 497.321-477.803 199.169 0 371.013 116.988 450.566 285.995v0l-163.813 69.025c-50.991-104.136-158.009-175.844-281.776-175.844-168.168 0-305.416 132.387-313.209 298.627v0zM753.523 644.972l143.657 113.729c61.481-82.801 97.852-185.359 97.852-296.413 0-60.761-10.888-118.979-30.82-172.81v0l-164.201 69.15c10.28 31.029 15.844 64.206 15.844 98.683 0 70.376-23.185 135.337-62.333 187.661v0zM189.713 482.197h-189.713c10.45 265.649 229.11 477.803 497.321 477.803 149.091 0 282.872-65.555 374.089-169.412v0l-143.935-115.070c-56.994 58.804-136.818 95.352-225.177 95.352-164.797 0-299.901-127.133-312.585-288.673v0z" />
<glyph unicode="&#xe93a;" glyph-name="search-filter" d="M853.333 392.533c0 41.111-14.611 76.278-43.833 105.5s-64.389 43.833-105.5 43.833c-41.111 0-76.278-14.611-105.5-43.833s-43.833-64.389-43.833-105.5c0-41.111 14.611-76.278 43.833-105.5s64.389-43.833 105.5-43.833c41.111 0 76.278 14.611 105.5 43.833s43.833 64.389 43.833 105.5v0zM1024 115.2c0-11.556-4.222-21.556-12.667-30s-18.444-12.667-30-12.667c-12 0-22 4.222-30 12.667l-114.333 114c-39.778-27.556-84.111-41.333-133-41.333-31.778 0-62.167 6.167-91.167 18.5s-54 29-75 50c-21 21-37.667 46-50 75s-18.5 59.389-18.5 91.167c0 31.778 6.167 62.167 18.5 91.167s29 54 50 75c21 21 46 37.667 75 50s59.389 18.5 91.167 18.5c31.778 0 62.167-6.167 91.167-18.5s54-29 75-50c21-21 37.667-46 50-75s18.5-59.389 18.5-91.167c0-48.889-13.778-93.222-41.333-133l114.333-114.333c8.222-8.222 12.333-18.222 12.333-30v0zM0 840.533h725.333v-85.333h-725.333v85.333zM0 627.2h426.667v-85.333h-426.667v85.333zM0 413.867h321.569v-85.333h-321.569v85.333zM0 200.533h426.667v-85.333h-426.667v85.333z" />
<glyph unicode="&#xe93b;" glyph-name="search-saving" d="M705.407 519.033c0 74.542-26.492 138.306-79.478 191.291s-116.749 79.478-191.291 79.478c-74.542 0-138.306-26.492-191.291-79.478s-79.478-116.749-79.478-191.291c0-74.542 26.492-138.306 79.478-191.291s116.749-79.478 191.291-79.478c74.542 0 138.306 26.492 191.291 79.478s79.478 116.749 79.478 191.291v0zM1014.857 16.176c0-20.952-7.656-39.084-22.967-54.396s-33.443-22.967-54.396-22.967c-21.758 0-39.89 7.656-54.396 22.967l-207.308 206.703c-72.125-49.964-152.509-74.945-241.154-74.945-57.619 0-112.72 11.181-165.302 33.544s-97.912 52.582-135.989 90.659c-38.077 38.077-68.297 83.406-90.659 135.989s-33.544 107.683-33.544 165.302c0 57.619 11.181 112.72 33.544 165.302s52.582 97.912 90.659 135.989c38.077 38.077 83.406 68.297 135.989 90.659s107.683 33.544 165.302 33.544c57.619 0 112.72-11.181 165.302-33.544s97.912-52.582 135.989-90.659c38.077-38.077 68.297-83.406 90.659-135.989s33.544-107.683 33.544-165.302c0-88.645-24.981-169.029-74.945-241.154l207.308-207.308c14.908-14.908 22.363-33.040 22.363-54.396v0zM516.846 451.378c0-18.589-6.045-34.597-18.134-48.022s-27.793-21.718-47.111-24.877v-31.893c0-1.701-0.547-3.098-1.64-4.192s-2.491-1.64-4.192-1.64h-24.604c-1.579 0-2.946 0.577-4.101 1.731s-1.731 2.521-1.731 4.101v31.893c-8.019 1.093-15.764 2.977-23.237 5.65s-13.638 5.376-18.498 8.11c-4.86 2.734-9.355 5.65-13.486 8.748s-6.956 5.376-8.475 6.834c-1.519 1.458-2.582 2.551-3.189 3.28-2.065 2.551-2.187 5.042-0.364 7.472l18.772 24.604c0.85 1.215 2.248 1.944 4.192 2.187 1.822 0.243 3.28-0.304 4.374-1.64 0 0 0.121-0.121 0.364-0.364 13.729-12.028 28.491-19.622 44.286-22.781 4.495-0.972 8.991-1.458 13.486-1.458 9.841 0 18.498 2.612 25.97 7.837s11.208 12.636 11.208 22.234c0 3.402-0.911 6.622-2.734 9.659s-3.858 5.589-6.105 7.654c-2.248 2.065-5.802 4.344-10.662 6.834s-8.869 4.435-12.028 5.832c-3.159 1.397-8.019 3.372-14.58 5.923-4.738 1.944-8.475 3.463-11.208 4.556s-6.47 2.703-11.208 4.83c-4.738 2.126-8.535 4.009-11.391 5.65s-6.288 3.797-10.297 6.47c-4.009 2.673-7.26 5.255-9.75 7.746s-5.133 5.467-7.928 8.93c-2.794 3.463-4.951 6.986-6.47 10.57s-2.794 7.624-3.827 12.12c-1.033 4.495-1.549 9.234-1.549 14.215 0 16.767 5.953 31.468 17.86 44.104s27.398 20.776 46.473 24.421v32.805c0 1.579 0.577 2.946 1.731 4.101s2.521 1.731 4.101 1.731h24.604c1.701 0 3.098-0.547 4.192-1.64s1.64-2.491 1.64-4.192v-32.076c6.925-0.729 13.638-2.126 20.138-4.192s11.785-4.101 15.856-6.105c4.070-2.005 7.928-4.283 11.573-6.834s6.014-4.313 7.108-5.285c1.093-0.972 2.005-1.822 2.734-2.551 2.065-2.187 2.369-4.495 0.911-6.925l-14.762-26.608c-0.972-1.822-2.369-2.794-4.192-2.916-1.701-0.364-3.341 0.061-4.921 1.276-0.364 0.364-1.245 1.093-2.643 2.187s-3.766 2.703-7.108 4.83c-3.341 2.126-6.895 4.070-10.662 5.832s-8.292 3.341-13.578 4.738c-5.285 1.397-10.479 2.096-15.582 2.096-11.542 0-20.959-2.612-28.249-7.837s-10.935-11.968-10.935-20.23c0-3.159 0.516-6.075 1.549-8.748s2.825-5.194 5.376-7.563c2.551-2.369 4.951-4.374 7.199-6.014s5.65-3.523 10.206-5.65c4.556-2.126 8.232-3.766 11.026-4.921s7.047-2.825 12.757-5.012c6.439-2.43 11.36-4.344 14.762-5.741s8.019-3.523 13.851-6.379c5.832-2.855 10.419-5.437 13.76-7.746s7.108-5.346 11.299-9.112c4.192-3.766 7.411-7.624 9.659-11.573s4.161-8.596 5.741-13.942c1.579-5.346 2.369-11.056 2.369-17.131v0z" />
<glyph unicode="&#xe93c;" glyph-name="search" d="M704.481 521.143c0 74.186-26.366 137.644-79.098 190.376s-116.19 79.098-190.376 79.098c-74.186 0-137.644-26.366-190.376-79.098s-79.098-116.19-79.098-190.376c0-74.186 26.366-137.644 79.098-190.376s116.19-79.098 190.376-79.098c74.186 0 137.644 26.366 190.376 79.098s79.098 116.19 79.098 190.376v0zM1012.451 20.692c0-20.852-7.619-38.897-22.857-54.135s-33.283-22.857-54.135-22.857c-21.654 0-39.699 7.619-54.135 22.857l-206.316 205.714c-71.78-49.725-151.779-74.586-240-74.586-57.344 0-112.18 11.128-164.511 33.383s-97.443 52.331-135.338 90.226c-37.895 37.895-67.97 83.007-90.226 135.338s-33.383 107.168-33.383 164.511c0 57.344 11.128 112.18 33.383 164.511s52.331 97.443 90.226 135.338c37.895 37.895 83.007 67.97 135.338 90.226s107.168 33.383 164.511 33.383c57.344 0 112.18-11.128 164.511-33.383s97.443-52.331 135.338-90.226c37.895-37.895 67.97-83.007 90.226-135.338s33.383-107.168 33.383-164.511c0-88.221-24.862-168.22-74.586-240l206.316-206.316c14.837-14.837 22.256-32.882 22.256-54.135v0z" />
<glyph unicode="&#xe93d;" glyph-name="square-minus" d="M832 461.714v-45.714c0-6.667-2.143-12.143-6.429-16.429s-9.762-6.429-16.429-6.429h-594.286c-6.667 0-12.143 2.143-16.429 6.429s-6.429 9.762-6.429 16.429v45.714c0 6.667 2.143 12.143 6.429 16.429s9.762 6.429 16.429 6.429h594.286c6.667 0 12.143-2.143 16.429-6.429s6.429-9.762 6.429-16.429v0zM923.429 141.714v594.286c0 31.429-11.19 58.333-33.571 80.714s-49.286 33.571-80.714 33.571h-594.286c-31.429 0-58.333-11.19-80.714-33.571s-33.571-49.286-33.571-80.714v-594.286c0-31.429 11.19-58.333 33.571-80.714s49.286-33.571 80.714-33.571h594.286c31.429 0 58.333 11.19 80.714 33.571s33.571 49.286 33.571 80.714v0zM1014.857 736v-594.286c0-56.667-20.119-105.119-60.357-145.357s-88.69-60.357-145.357-60.357h-594.286c-56.667 0-105.119 20.119-145.357 60.357s-60.357 88.69-60.357 145.357v594.286c0 56.667 20.119 105.119 60.357 145.357s88.69 60.357 145.357 60.357h594.286c56.667 0 105.119-20.119 145.357-60.357s60.357-88.69 60.357-145.357v0z" />
<glyph unicode="&#xe93e;" glyph-name="square-plus" d="M832 461.714v-45.714c0-6.667-2.143-12.143-6.429-16.429s-9.762-6.429-16.429-6.429h-251.429v-251.429c0-6.667-2.143-12.143-6.429-16.429s-9.762-6.429-16.429-6.429h-45.714c-6.667 0-12.143 2.143-16.429 6.429s-6.429 9.762-6.429 16.429v251.429h-251.429c-6.667 0-12.143 2.143-16.429 6.429s-6.429 9.762-6.429 16.429v45.714c0 6.667 2.143 12.143 6.429 16.429s9.762 6.429 16.429 6.429h251.429v251.429c0 6.667 2.143 12.143 6.429 16.429s9.762 6.429 16.429 6.429h45.714c6.667 0 12.143-2.143 16.429-6.429s6.429-9.762 6.429-16.429v-251.429h251.429c6.667 0 12.143-2.143 16.429-6.429s6.429-9.762 6.429-16.429v0zM923.429 141.714v594.286c0 31.429-11.19 58.333-33.571 80.714s-49.286 33.571-80.714 33.571h-594.286c-31.429 0-58.333-11.19-80.714-33.571s-33.571-49.286-33.571-80.714v-594.286c0-31.429 11.19-58.333 33.571-80.714s49.286-33.571 80.714-33.571h594.286c31.429 0 58.333 11.19 80.714 33.571s33.571 49.286 33.571 80.714v0zM1014.857 736v-594.286c0-56.667-20.119-105.119-60.357-145.357s-88.69-60.357-145.357-60.357h-594.286c-56.667 0-105.119 20.119-145.357 60.357s-60.357 88.69-60.357 145.357v594.286c0 56.667 20.119 105.119 60.357 145.357s88.69 60.357 145.357 60.357h594.286c56.667 0 105.119-20.119 145.357-60.357s60.357-88.69 60.357-145.357v0z" />
<glyph unicode="&#xe93f;" glyph-name="square" d="M23.937 939.908h992.081v-990.898h-992.081v990.898z" />
<glyph unicode="&#xe940;" glyph-name="star-full" d="M1018.776 565.184c0-8.98-5.306-18.775-15.918-29.388l-222.245-216.735 52.653-306.122c0.408-2.857 0.612-6.939 0.612-12.245 0-20.408-8.367-30.612-25.102-30.612-7.755 0-15.918 2.449-24.49 7.347l-274.898 144.49-274.898-144.49c-8.98-4.898-17.143-7.347-24.49-7.347-8.571 0-15 2.959-19.286 8.878s-6.429 13.163-6.429 21.735c0 2.449 0.408 6.531 1.224 12.245l52.653 306.122-222.857 216.735c-10.204 11.020-15.306 20.816-15.306 29.388 0 15.102 11.428 24.49 34.286 28.163l307.347 44.694 137.755 278.571c7.755 16.735 17.755 25.102 30 25.102s22.245-8.367 30-25.102l137.755-278.571 307.347-44.694c22.857-3.673 34.286-13.061 34.286-28.163z" />
<glyph unicode="&#xe941;" glyph-name="flag" d="M948.335 367.488v364.138c-66.601-35.862-126.896-53.793-180.887-53.793-32.315 0-60.887 6.305-85.714 18.916-39.409 19.31-75.665 34.384-108.768 45.222s-68.177 16.256-105.222 16.256c-68.178 0-147.586-25.024-238.227-75.074v-354.089c96.552 44.532 181.872 66.798 255.961 66.798 21.675 0 42.069-1.478 61.182-4.433s38.424-8.079 57.931-15.369c19.507-7.291 34.68-13.399 45.517-18.325s27.093-12.709 48.768-23.35l16.552-8.276c17.34-8.67 37.241-13.005 59.704-13.005 47.291 0 105.024 18.128 173.202 54.384v0zM153.852 833.892c0-13.793-3.448-26.404-10.345-37.833s-16.059-20.493-27.488-27.192v-748.374c0-5.517-1.773-10.049-5.32-13.596s-8.079-5.32-13.596-5.32h-37.833c-5.517 0-10.049 1.773-13.596 5.32s-5.32 8.079-5.32 13.596v748.374c-11.429 6.7-20.591 15.763-27.488 27.192s-10.345 24.039-10.345 37.833c0 20.887 7.389 38.719 22.167 53.498s32.611 22.167 53.498 22.167c20.887 0 38.719-7.389 53.498-22.167s22.167-32.611 22.167-53.498v0zM1024 796.059v-451.034c0-15.37-6.896-26.601-20.69-33.695-3.941-1.97-7.291-3.744-10.049-5.32-85.912-45.715-158.62-68.571-218.128-68.571-34.68 0-65.813 6.896-93.399 20.69l-16.552 8.276c-25.222 13.005-44.729 22.463-58.522 28.374s-31.724 11.626-53.793 17.143c-22.069 5.517-44.532 8.276-67.389 8.276-40.197 0-86.601-8.67-139.212-26.010s-97.635-37.438-135.074-60.296c-5.911-3.547-12.414-5.32-19.507-5.32-6.305 0-12.611 1.576-18.916 4.729-12.611 7.488-18.916 18.522-18.916 33.103v438.621c0 13.793 6.108 24.631 18.325 32.512 13.793 8.276 29.261 16.65 46.404 25.123s39.606 18.719 67.389 30.739c27.783 12.020 57.832 21.773 90.148 29.261s62.857 11.232 91.626 11.232c44.138 0 85.32-6.108 123.547-18.325s79.409-29.162 123.547-50.837c14.975-7.488 32.512-11.232 52.611-11.232 48.079 0 109.162 22.069 183.251 66.207 8.67 4.729 14.778 8.079 18.325 10.049 12.217 6.305 24.433 5.911 36.65-1.182 12.217-7.882 18.325-18.719 18.325-32.512v0z" />
<glyph unicode="&#xe942;" glyph-name="switch-off" d="M564.245 432.327c0 33.959-6.612 66.367-19.837 97.224s-31.102 57.551-53.633 80.082c-22.531 22.531-49.224 40.408-80.082 53.633s-63.265 19.837-97.224 19.837c-33.959 0-66.367-6.612-97.224-19.837s-57.551-31.102-80.082-53.633c-22.531-22.531-40.408-49.224-53.633-80.082s-19.837-63.265-19.837-97.224c0-33.959 6.612-66.367 19.837-97.224s31.102-57.551 53.633-80.082c22.531-22.531 49.224-40.408 80.082-53.633s63.265-19.837 97.224-19.837c33.959 0 66.367 6.612 97.224 19.837s57.551 31.102 80.082 53.633c22.531 22.531 40.408 49.224 53.633 80.082s19.837 63.265 19.837 97.224v0zM940.408 432.327c0 33.959-6.612 66.367-19.837 97.224s-31.102 57.551-53.633 80.082c-22.531 22.531-49.224 40.408-80.082 53.633s-63.265 19.837-97.224 19.837h-189.061c38.857-29.388 69.633-65.959 92.327-109.714s34.041-90.775 34.041-141.061c0-50.286-11.347-97.306-34.041-141.061s-53.469-80.326-92.327-109.714h189.061c33.959 0 66.367 6.612 97.224 19.837s57.551 31.102 80.082 53.633c22.531 22.531 40.408 49.224 53.633 80.082s19.837 63.265 19.837 97.224v0zM1003.102 432.327c0-42.449-8.326-83.020-24.98-121.714s-38.939-72-66.857-99.918c-27.919-27.919-61.224-50.204-99.918-66.857s-79.265-24.98-121.714-24.98h-376.163c-42.449 0-83.020 8.326-121.714 24.98s-72 38.939-99.918 66.857c-27.919 27.919-50.204 61.224-66.857 99.918s-24.98 79.265-24.98 121.714c0 42.449 8.326 83.020 24.98 121.714s38.939 72 66.857 99.918c27.919 27.919 61.224 50.204 99.918 66.857s79.265 24.98 121.714 24.98h376.163c42.449 0 83.020-8.326 121.714-24.98s72-38.939 99.918-66.857c27.919-27.919 50.204-61.224 66.857-99.918s24.98-79.265 24.98-121.714v0z" />
<glyph unicode="&#xe943;" glyph-name="switch-on" d="M0 432.327c0 42.449 8.326 83.020 24.98 121.714s38.939 72 66.857 99.918c27.919 27.919 61.224 50.204 99.918 66.857s79.265 24.98 121.714 24.98h376.163c42.449 0 83.020-8.326 121.714-24.98s72-38.939 99.918-66.857c27.919-27.919 50.204-61.224 66.857-99.918s24.98-79.265 24.98-121.714c0-42.449-8.326-83.020-24.98-121.714s-38.939-72-66.857-99.918c-27.919-27.919-61.224-50.204-99.918-66.857s-79.265-24.98-121.714-24.98h-376.163c-42.449 0-83.020 8.326-121.714 24.98s-72 38.939-99.918 66.857c-27.919 27.919-50.204 61.224-66.857 99.918s-24.98 79.265-24.98 121.714v0zM689.633 181.551c33.959 0 66.367 6.612 97.224 19.837s57.551 31.102 80.082 53.633c22.531 22.531 40.408 49.224 53.633 80.082s19.837 63.265 19.837 97.224c0 33.959-6.612 66.367-19.837 97.224s-31.102 57.551-53.633 80.082c-22.531 22.531-49.224 40.408-80.082 53.633s-63.265 19.837-97.224 19.837c-33.959 0-66.367-6.612-97.224-19.837s-57.551-31.102-80.082-53.633c-22.531-22.531-40.408-49.224-53.633-80.082s-19.837-63.265-19.837-97.224c0-33.959 6.612-66.367 19.837-97.224s31.102-57.551 53.633-80.082c22.531-22.531 49.224-40.408 80.082-53.633s63.265-19.837 97.224-19.837v0z" />
<glyph unicode="&#xe944;" glyph-name="table" d="M319.519 125.658v115.489c0 5.614-1.804 10.226-5.414 13.835s-8.221 5.414-13.835 5.414h-192.481c-5.614 0-10.226-1.804-13.835-5.414s-5.414-8.221-5.414-13.835v-115.489c0-5.614 1.804-10.226 5.414-13.835s8.221-5.414 13.835-5.414h192.481c5.614 0 10.226 1.804 13.835 5.414s5.414 8.221 5.414 13.835v0zM319.519 356.636v115.489c0 5.614-1.804 10.226-5.414 13.835s-8.221 5.414-13.835 5.414h-192.481c-5.614 0-10.226-1.804-13.835-5.414s-5.414-8.221-5.414-13.835v-115.489c0-5.614 1.804-10.226 5.414-13.835s8.221-5.414 13.835-5.414h192.481c5.614 0 10.226 1.804 13.835 5.414s5.414 8.221 5.414 13.835v0zM627.489 125.658v115.489c0 5.614-1.804 10.226-5.414 13.835s-8.221 5.414-13.835 5.414h-192.481c-5.614 0-10.226-1.804-13.835-5.414s-5.414-8.221-5.414-13.835v-115.489c0-5.614 1.804-10.226 5.414-13.835s8.221-5.414 13.835-5.414h192.481c5.614 0 10.226 1.804 13.835 5.414s5.414 8.221 5.414 13.835v0zM319.519 587.613v115.489c0 5.614-1.804 10.226-5.414 13.835s-8.221 5.414-13.835 5.414h-192.481c-5.614 0-10.226-1.804-13.835-5.414s-5.414-8.221-5.414-13.835v-115.489c0-5.614 1.804-10.226 5.414-13.835s8.221-5.414 13.835-5.414h192.481c5.614 0 10.226 1.804 13.835 5.414s5.414 8.221 5.414 13.835v0zM627.489 356.636v115.489c0 5.614-1.804 10.226-5.414 13.835s-8.221 5.414-13.835 5.414h-192.481c-5.614 0-10.226-1.804-13.835-5.414s-5.414-8.221-5.414-13.835v-115.489c0-5.614 1.804-10.226 5.414-13.835s8.221-5.414 13.835-5.414h192.481c5.614 0 10.226 1.804 13.835 5.414s5.414 8.221 5.414 13.835v0zM935.459 125.658v115.489c0 5.614-1.804 10.226-5.414 13.835s-8.221 5.414-13.835 5.414h-192.481c-5.614 0-10.226-1.804-13.835-5.414s-5.414-8.221-5.414-13.835v-115.489c0-5.614 1.804-10.226 5.414-13.835s8.221-5.414 13.835-5.414h192.481c5.614 0 10.226 1.804 13.835 5.414s5.414 8.221 5.414 13.835v0zM627.489 587.613v115.489c0 5.614-1.804 10.226-5.414 13.835s-8.221 5.414-13.835 5.414h-192.481c-5.614 0-10.226-1.804-13.835-5.414s-5.414-8.221-5.414-13.835v-115.489c0-5.614 1.804-10.226 5.414-13.835s8.221-5.414 13.835-5.414h192.481c5.614 0 10.226 1.804 13.835 5.414s5.414 8.221 5.414 13.835v0zM935.459 356.636v115.489c0 5.614-1.804 10.226-5.414 13.835s-8.221 5.414-13.835 5.414h-192.481c-5.614 0-10.226-1.804-13.835-5.414s-5.414-8.221-5.414-13.835v-115.489c0-5.614 1.804-10.226 5.414-13.835s8.221-5.414 13.835-5.414h192.481c5.614 0 10.226 1.804 13.835 5.414s5.414 8.221 5.414 13.835v0zM935.459 587.613v115.489c0 5.614-1.804 10.226-5.414 13.835s-8.221 5.414-13.835 5.414h-192.481c-5.614 0-10.226-1.804-13.835-5.414s-5.414-8.221-5.414-13.835v-115.489c0-5.614 1.804-10.226 5.414-13.835s8.221-5.414 13.835-5.414h192.481c5.614 0 10.226 1.804 13.835 5.414s5.414 8.221 5.414 13.835v0zM1012.451 780.094v-654.436c0-26.466-9.423-49.123-28.271-67.97s-41.504-28.271-67.97-28.271h-808.421c-26.466 0-49.123 9.423-67.97 28.271s-28.271 41.504-28.271 67.97v654.436c0 26.466 9.423 49.123 28.271 67.97s41.504 28.271 67.97 28.271h808.421c26.466 0 49.123-9.423 67.97-28.271s28.271-41.504 28.271-67.97v0z" />
<glyph unicode="&#xe945;" glyph-name="tag" d="M320.703 732.132c0 23.297-8.242 43.187-24.725 59.67s-36.374 24.725-59.67 24.725c-23.297 0-43.187-8.242-59.67-24.725s-24.725-36.374-24.725-59.67c0-23.297 8.242-43.187 24.725-59.67s36.374-24.725 59.67-24.725c23.297 0 43.187 8.242 59.67 24.725s24.725 36.374 24.725 59.67v0zM1024.22 352.352c0-23.297-8.132-43.077-24.396-59.341l-323.736-324.396c-17.143-16.264-37.143-24.396-60-24.396-23.297 0-43.077 8.132-59.341 24.396l-471.429 472.088c-16.703 16.264-30.879 38.461-42.527 66.593s-17.473 53.846-17.473 77.143v274.286c0 22.857 8.352 42.637 25.055 59.341s36.483 25.055 59.341 25.055h274.286c23.297 0 49.011-5.824 77.143-17.473s50.549-25.824 67.253-42.527l471.429-470.769c16.264-17.143 24.396-37.143 24.396-60v0z" />
<glyph unicode="&#xe946;" glyph-name="talk" d="M402.286 771.158c-58.286 0-112.762-9.905-163.429-29.714s-90.952-46.666-120.857-80.571c-29.905-33.905-44.857-70.286-44.857-109.143 0-31.238 10.095-61.333 30.286-90.286s48.571-54.095 85.143-75.429l55.429-32-20-48c12.952 7.619 24.762 15.048 35.429 22.286l25.143 17.714 30.286-5.714c29.714-5.333 58.857-8 87.429-8 58.286 0 112.762 9.905 163.429 29.714s90.952 46.666 120.857 80.571c29.905 33.905 44.857 70.286 44.857 109.143s-14.952 75.238-44.857 109.143c-29.905 33.905-70.19 60.762-120.857 80.571s-105.143 29.714-163.429 29.714v0zM402.286 844.301c72.762 0 140.095-13.047 202-39.143s110.762-61.619 146.571-106.571c35.81-44.953 53.714-93.904 53.714-146.857s-17.905-101.905-53.714-146.857c-35.81-44.953-84.666-80.476-146.571-106.571s-129.238-39.143-202-39.143c-32.762 0-66.286 3.048-100.571 9.143-47.238-33.524-100.19-57.905-158.857-73.143-13.714-3.429-30.095-6.476-49.143-9.143h-1.714c-4.19 0-8.095 1.524-11.714 4.571s-5.81 7.048-6.571 12c-0.381 1.143-0.571 2.381-0.571 3.714s0.095 2.571 0.286 3.714c0.19 1.143 0.571 2.286 1.143 3.429s1.048 2.095 1.429 2.857c0.381 0.762 1.048 1.81 2 3.143s1.714 2.286 2.286 2.857c0.571 0.571 1.429 1.524 2.571 2.857s1.905 2.19 2.286 2.571c1.905 2.286 6.286 7.048 13.143 14.286s11.81 12.857 14.857 16.857c3.048 4 7.333 9.524 12.857 16.571s10.286 14.381 14.286 22c4 7.619 7.905 16 11.714 25.143-47.238 27.429-84.381 61.143-111.429 101.143s-40.571 82.666-40.571 128c0 52.953 17.905 101.905 53.714 146.857s84.666 80.476 146.571 106.571c61.905 26.095 129.238 39.143 202 39.143v0zM872 176.301c3.81-9.143 7.714-17.524 11.714-25.143s8.762-14.952 14.286-22c5.524-7.048 9.81-12.571 12.857-16.571s8-9.619 14.857-16.857c6.857-7.238 11.238-12 13.143-14.286 0.381-0.381 1.143-1.238 2.286-2.571s2-2.286 2.571-2.857c0.571-0.571 1.333-1.524 2.286-2.857s1.619-2.381 2-3.143c0.381-0.762 0.857-1.714 1.429-2.857s0.952-2.286 1.143-3.429c0.19-1.143 0.286-2.381 0.286-3.714s-0.19-2.571-0.571-3.714c-1.143-5.333-3.619-9.524-7.429-12.571s-8-4.381-12.571-4c-19.048 2.667-35.429 5.714-49.143 9.143-58.667 15.238-111.619 39.619-158.857 73.143-34.286-6.095-67.809-9.143-100.571-9.143-103.239 0-193.142 25.143-269.714 75.429 22.095-1.524 38.857-2.286 50.286-2.286 61.334 0 120.19 8.571 176.571 25.714s106.666 41.714 150.857 73.714c47.619 35.048 84.19 75.428 109.714 121.143s38.286 94.095 38.286 145.143c0 29.333-4.381 58.286-13.143 86.857 49.143-27.048 88-60.952 116.571-101.714s42.857-84.571 42.857-131.429c0-45.715-13.524-88.476-40.571-128.286s-64.19-73.428-111.429-100.857v0z" />
<glyph unicode="&#xe947;" glyph-name="target" d="M679.619 440.381c0-46.27-16.369-85.774-49.107-118.512s-72.242-49.107-118.512-49.107c-46.27 0-85.774 16.369-118.512 49.107s-49.107 72.242-49.107 118.512c0 46.27 16.369 85.774 49.107 118.512s72.242 49.107 118.512 49.107c46.27 0 85.774-16.369 118.512-49.107s49.107-72.242 49.107-118.512v0zM763.429 440.381c0 69.405-24.553 128.66-73.661 177.768s-108.363 73.661-177.768 73.661c-69.405 0-128.66-24.553-177.768-73.661s-73.661-108.363-73.661-177.768c0-69.405 24.553-128.66 73.661-177.768s108.363-73.661 177.768-73.661c69.405 0 128.66 24.553 177.768 73.661s73.661 108.363 73.661 177.768v0zM847.238 440.381c0-92.54-32.738-171.547-98.214-237.024s-144.484-98.214-237.024-98.214c-92.54 0-171.547 32.738-237.024 98.214s-98.214 144.484-98.214 237.024c0 92.54 32.738 171.547 98.214 237.024s144.484 98.214 237.024 98.214c92.54 0 171.547-32.738 237.024-98.214s98.214-144.484 98.214-237.024v0zM931.048 440.381c0 56.746-11.131 110.982-33.393 162.708s-52.053 96.25-89.375 133.571c-37.322 37.322-81.845 67.113-133.571 89.375s-105.962 33.393-162.708 33.393c-56.746 0-110.982-11.131-162.708-33.393s-96.25-52.053-133.571-89.375c-37.322-37.322-67.113-81.845-89.375-133.571s-33.393-105.962-33.393-162.708c0-56.746 11.131-110.982 33.393-162.708s52.053-96.25 89.375-133.571c37.322-37.322 81.845-67.113 133.571-89.375s105.962-33.393 162.708-33.393c56.746 0 110.982 11.131 162.708 33.393s96.25 52.053 133.571 89.375c37.322 37.322 67.113 81.845 89.375 133.571s33.393 105.962 33.393 162.708v0zM1014.857 440.381c0-91.231-22.48-175.367-67.44-252.411s-105.962-138.045-183.006-183.006c-77.044-44.961-161.18-67.44-252.411-67.44s-175.367 22.48-252.411 67.44c-77.044 44.961-138.045 105.962-183.006 183.006s-67.44 161.18-67.44 252.411c0 91.231 22.48 175.367 67.44 252.411s105.962 138.045 183.006 183.006c77.044 44.961 161.18 67.44 252.411 67.44s175.367-22.48 252.411-67.44c77.044-44.961 138.045-105.962 183.006-183.006s67.44-161.18 67.44-252.411v0z" />
<glyph unicode="&#xe948;" glyph-name="clock" d="M512 960c-282.772 0-512-229.228-512-512 0-282.761 229.228-512 512-512 282.761 0 512 229.239 512 512 0 282.772-229.239 512-512 512v0zM512-7.111c-251.358 0-455.111 203.765-455.111 455.111 0 251.358 203.753 455.111 455.111 455.111 251.346 0 455.111-203.753 455.111-455.111 0-251.346-203.765-455.111-455.111-455.111v0zM450.56 796.16h40.96v-409.6h-40.96v409.6zM860.16 427.52v-40.96h-409.6v40.96h409.6z" />
<glyph unicode="&#xe949;" glyph-name="triangle-down" d="M0 891.733h1024l-512-880.86z" />
<glyph unicode="&#xe94a;" glyph-name="triangle-left" d="M839.486 960v-1025.367l-674.915 512.684z" />
<glyph unicode="&#xe94b;" glyph-name="triangle-right" d="M164.571-65.367v1025.367l674.915-512.684z" />
<glyph unicode="&#xe94c;" glyph-name="triangle-up" d="M0 10.873h1024l-512 880.86z" />
<glyph unicode="&#xe94d;" glyph-name="unarchive" d="M753.583 449.46l-32.906-28.729c-4.822-4.21-10.295-6.315-16.486-6.315-6.125 0-11.599 2.105-16.42 6.315l-129.214 112.811v-458.069c0-5.916-2.215-10.752-6.581-14.564s-9.904-5.746-16.681-5.746h-46.59c-6.777 0-12.315 1.934-16.681 5.746s-6.581 8.647-6.581 14.564v458.069l-129.214-112.811c-4.822-4.21-10.295-6.315-16.42-6.315-6.19 0-11.664 2.105-16.486 6.315l-32.906 28.729c-4.822 4.21-7.233 8.988-7.233 14.393 0 5.348 2.411 10.126 7.233 14.336l223.11 194.788c4.822 4.21 10.295 6.315 16.486 6.315 0.717 0 1.238-0.683 2.020-0.74 0.717 0.057 1.238 0.74 1.955 0.74 6.19 0 11.664-2.105 16.486-6.315l223.11-194.788c4.822-4.21 7.233-8.988 7.168-14.336 0.065-5.404-2.346-10.183-7.168-14.393v0zM384.709 852.745c3.388 3.812 7.559 6.144 12.381 6.997h230.538c4.822-0.853 8.992-3.186 12.381-6.997l34.861-74.24h-325.803l35.643 74.24zM1017.419 772.76c-4.366 3.812-9.904 5.746-16.746 5.746h-224.674l-50.89 105.984c-7.298 15.701-20.395 29.013-39.292 40.050-18.897 10.98-38.054 16.498-57.472 16.498h-232.689c-19.418 0-38.575-5.518-57.472-16.498-18.897-11.036-31.994-24.348-39.292-40.050l-50.89-105.984h-224.739c-6.777 0-12.315-1.934-16.681-5.746s-6.581-8.647-6.581-14.62v-40.619c0-5.916 2.215-10.809 6.581-14.564 4.366-3.868 9.904-5.746 16.681-5.746h69.852v-604.444c0-35.157 11.403-65.081 34.144-89.828 22.806-24.747 50.239-37.148 82.233-37.148h605.017c31.994 0 59.427 12.8 82.233 38.4 22.741 25.6 34.144 55.979 34.144 91.136v601.884h69.787c6.842 0 12.381 1.877 16.746 5.746 4.366 3.755 6.581 8.647 6.581 14.564v40.619c0 5.973-2.215 10.809-6.581 14.62v0z" />
<glyph unicode="&#xe94e;" glyph-name="work" horiz-adv-x="819" d="M221.867 210.286v-36.571c0-4.952-1.81-9.238-5.429-12.857s-7.905-5.429-12.857-5.429h-36.571c-4.952 0-9.238 1.81-12.857 5.429s-5.429 7.905-5.429 12.857v36.571c0 4.952 1.81 9.238 5.429 12.857s7.905 5.429 12.857 5.429h36.571c4.952 0 9.238-1.81 12.857-5.429s5.429-7.905 5.429-12.857v0zM221.867 356.571v-36.571c0-4.952-1.81-9.238-5.429-12.857s-7.905-5.429-12.857-5.429h-36.571c-4.952 0-9.238 1.81-12.857 5.429s-5.429 7.905-5.429 12.857v36.571c0 4.952 1.81 9.238 5.429 12.857s7.905 5.429 12.857 5.429h36.571c4.952 0 9.238-1.81 12.857-5.429s5.429-7.905 5.429-12.857v0zM368.152 356.571v-36.571c0-4.952-1.81-9.238-5.429-12.857s-7.905-5.429-12.857-5.429h-36.571c-4.952 0-9.238 1.81-12.857 5.429s-5.429 7.905-5.429 12.857v36.571c0 4.952 1.81 9.238 5.429 12.857s7.905 5.429 12.857 5.429h36.571c4.952 0 9.238-1.81 12.857-5.429s5.429-7.905 5.429-12.857v0zM221.867 502.857v-36.571c0-4.952-1.81-9.238-5.429-12.857s-7.905-5.429-12.857-5.429h-36.571c-4.952 0-9.238 1.81-12.857 5.429s-5.429 7.905-5.429 12.857v36.571c0 4.952 1.81 9.238 5.429 12.857s7.905 5.429 12.857 5.429h36.571c4.952 0 9.238-1.81 12.857-5.429s5.429-7.905 5.429-12.857v0zM660.724 210.286v-36.571c0-4.952-1.81-9.238-5.429-12.857s-7.905-5.429-12.857-5.429h-36.571c-4.952 0-9.238 1.81-12.857 5.429s-5.429 7.905-5.429 12.857v36.571c0 4.952 1.81 9.238 5.429 12.857s7.905 5.429 12.857 5.429h36.571c4.952 0 9.238-1.81 12.857-5.429s5.429-7.905 5.429-12.857v0zM514.438 356.571v-36.571c0-4.952-1.81-9.238-5.429-12.857s-7.905-5.429-12.857-5.429h-36.571c-4.952 0-9.238 1.81-12.857 5.429s-5.429 7.905-5.429 12.857v36.571c0 4.952 1.81 9.238 5.429 12.857s7.905 5.429 12.857 5.429h36.571c4.952 0 9.238-1.81 12.857-5.429s5.429-7.905 5.429-12.857v0zM368.152 502.857v-36.571c0-4.952-1.81-9.238-5.429-12.857s-7.905-5.429-12.857-5.429h-36.571c-4.952 0-9.238 1.81-12.857 5.429s-5.429 7.905-5.429 12.857v36.571c0 4.952 1.81 9.238 5.429 12.857s7.905 5.429 12.857 5.429h36.571c4.952 0 9.238-1.81 12.857-5.429s5.429-7.905 5.429-12.857v0zM221.867 649.143v-36.571c0-4.952-1.81-9.238-5.429-12.857s-7.905-5.429-12.857-5.429h-36.571c-4.952 0-9.238 1.81-12.857 5.429s-5.429 7.905-5.429 12.857v36.571c0 4.952 1.81 9.238 5.429 12.857s7.905 5.429 12.857 5.429h36.571c4.952 0 9.238-1.81 12.857-5.429s5.429-7.905 5.429-12.857v0zM660.724 356.571v-36.571c0-4.952-1.81-9.238-5.429-12.857s-7.905-5.429-12.857-5.429h-36.571c-4.952 0-9.238 1.81-12.857 5.429s-5.429 7.905-5.429 12.857v36.571c0 4.952 1.81 9.238 5.429 12.857s7.905 5.429 12.857 5.429h36.571c4.952 0 9.238-1.81 12.857-5.429s5.429-7.905 5.429-12.857v0zM514.438 502.857v-36.571c0-4.952-1.81-9.238-5.429-12.857s-7.905-5.429-12.857-5.429h-36.571c-4.952 0-9.238 1.81-12.857 5.429s-5.429 7.905-5.429 12.857v36.571c0 4.952 1.81 9.238 5.429 12.857s7.905 5.429 12.857 5.429h36.571c4.952 0 9.238-1.81 12.857-5.429s5.429-7.905 5.429-12.857v0zM368.152 649.143v-36.571c0-4.952-1.81-9.238-5.429-12.857s-7.905-5.429-12.857-5.429h-36.571c-4.952 0-9.238 1.81-12.857 5.429s-5.429 7.905-5.429 12.857v36.571c0 4.952 1.81 9.238 5.429 12.857s7.905 5.429 12.857 5.429h36.571c4.952 0 9.238-1.81 12.857-5.429s5.429-7.905 5.429-12.857v0zM221.867 795.429v-36.571c0-4.952-1.81-9.238-5.429-12.857s-7.905-5.429-12.857-5.429h-36.571c-4.952 0-9.238 1.81-12.857 5.429s-5.429 7.905-5.429 12.857v36.571c0 4.952 1.81 9.238 5.429 12.857s7.905 5.429 12.857 5.429h36.571c4.952 0 9.238-1.81 12.857-5.429s5.429-7.905 5.429-12.857v0zM660.724 502.857v-36.571c0-4.952-1.81-9.238-5.429-12.857s-7.905-5.429-12.857-5.429h-36.571c-4.952 0-9.238 1.81-12.857 5.429s-5.429 7.905-5.429 12.857v36.571c0 4.952 1.81 9.238 5.429 12.857s7.905 5.429 12.857 5.429h36.571c4.952 0 9.238-1.81 12.857-5.429s5.429-7.905 5.429-12.857v0zM514.438 649.143v-36.571c0-4.952-1.81-9.238-5.429-12.857s-7.905-5.429-12.857-5.429h-36.571c-4.952 0-9.238 1.81-12.857 5.429s-5.429 7.905-5.429 12.857v36.571c0 4.952 1.81 9.238 5.429 12.857s7.905 5.429 12.857 5.429h36.571c4.952 0 9.238-1.81 12.857-5.429s5.429-7.905 5.429-12.857v0zM368.152 795.429v-36.571c0-4.952-1.81-9.238-5.429-12.857s-7.905-5.429-12.857-5.429h-36.571c-4.952 0-9.238 1.81-12.857 5.429s-5.429 7.905-5.429 12.857v36.571c0 4.952 1.81 9.238 5.429 12.857s7.905 5.429 12.857 5.429h36.571c4.952 0 9.238-1.81 12.857-5.429s5.429-7.905 5.429-12.857v0zM660.724 649.143v-36.571c0-4.952-1.81-9.238-5.429-12.857s-7.905-5.429-12.857-5.429h-36.571c-4.952 0-9.238 1.81-12.857 5.429s-5.429 7.905-5.429 12.857v36.571c0 4.952 1.81 9.238 5.429 12.857s7.905 5.429 12.857 5.429h36.571c4.952 0 9.238-1.81 12.857-5.429s5.429-7.905 5.429-12.857v0zM514.438 795.429v-36.571c0-4.952-1.81-9.238-5.429-12.857s-7.905-5.429-12.857-5.429h-36.571c-4.952 0-9.238 1.81-12.857 5.429s-5.429 7.905-5.429 12.857v36.571c0 4.952 1.81 9.238 5.429 12.857s7.905 5.429 12.857 5.429h36.571c4.952 0 9.238-1.81 12.857-5.429s5.429-7.905 5.429-12.857v0zM660.724 795.429v-36.571c0-4.952-1.81-9.238-5.429-12.857s-7.905-5.429-12.857-5.429h-36.571c-4.952 0-9.238 1.81-12.857 5.429s-5.429 7.905-5.429 12.857v36.571c0 4.952 1.81 9.238 5.429 12.857s7.905 5.429 12.857 5.429h36.571c4.952 0 9.238-1.81 12.857-5.429s5.429-7.905 5.429-12.857v0zM514.438 9.143h219.429v877.714h-658.286v-877.714h219.429v128c0 4.952 1.81 9.238 5.429 12.857s7.905 5.429 12.857 5.429h182.857c4.952 0 9.238-1.81 12.857-5.429s5.429-7.905 5.429-12.857v-128zM807.010 923.429v-950.857c0-9.905-3.619-18.476-10.857-25.714s-15.809-10.857-25.714-10.857h-731.429c-9.905 0-18.476 3.619-25.714 10.857s-10.857 15.809-10.857 25.714v950.857c0 9.905 3.619 18.476 10.857 25.714s15.809 10.857 25.714 10.857h731.429c9.905 0 18.476-3.619 25.714-10.857s10.857-15.809 10.857-25.714v0z" />
<glyph unicode="&#xf0a0;" glyph-name="system" horiz-adv-x="878" d="M594.286 256q0-18.857-13.429-32.286t-32.286-13.429-32.286 13.429-13.429 32.286 13.429 32.286 32.286 13.429 32.286-13.429 13.429-32.286zM740.571 256q0-18.857-13.429-32.286t-32.286-13.429-32.286 13.429-13.429 32.286 13.429 32.286 32.286 13.429 32.286-13.429 13.429-32.286zM804.571 164.571v182.857q0 7.429-5.429 12.857t-12.857 5.429h-694.857q-7.429 0-12.857-5.429t-5.429-12.857v-182.857q0-7.429 5.429-12.857t12.857-5.429h694.857q7.429 0 12.857 5.429t5.429 12.857zM101.714 438.857h674.286l-89.714 275.429q-2.286 7.429-9.143 12.286t-14.857 4.857h-446.857q-8 0-14.857-4.857t-9.143-12.286zM877.714 347.428v-182.857q0-37.714-26.857-64.571t-64.571-26.857h-694.857q-37.714 0-64.571 26.857t-26.857 64.571v182.857q0 14.286 9.143 42.857l112.571 346.286q9.714 30.286 36 49.143t57.714 18.857h446.857q31.429 0 57.714-18.857t36-49.143l112.571-346.286q9.143-28.571 9.143-42.857z" />
</font>
</defs>
</svg>
